<svg width="20" height="19" viewBox="0 0 20 19" fill="none" xmlns="http://www.w3.org/2000/svg">
<path d="M12.584 1.0334C12.2475 0.706275 11.8456 0.446346 11.4018 0.268882C10.9581 0.091418 10.4815 0 10 0C9.51853 0 9.04192 0.091418 8.59817 0.268882C8.15442 0.446346 7.75249 0.706275 7.41599 1.0334L6.63841 1.79105L5.5258 1.77799C5.04419 1.77257 4.5663 1.85869 4.12024 2.03128C3.67417 2.20386 3.26894 2.45943 2.92836 2.78296C2.58779 3.10648 2.31875 3.49143 2.13707 3.91517C1.95539 4.3389 1.86473 4.79287 1.87043 5.25037L1.88293 6.30728L1.08785 7.04594C0.743494 7.36559 0.469867 7.7474 0.283051 8.16894C0.0962355 8.59047 0 9.04323 0 9.50059C0 9.95796 0.0962355 10.4107 0.283051 10.8323C0.469867 11.2538 0.743494 11.6356 1.08785 11.9552L1.88418 12.6939L1.87043 13.7508C1.86473 14.2083 1.95539 14.6623 2.13707 15.086C2.31875 15.5098 2.58779 15.8947 2.92836 16.2182C3.26894 16.5418 3.67417 16.7973 4.12024 16.9699C4.5663 17.1425 5.04419 17.2286 5.5258 17.2232L6.63841 17.2113L7.41599 17.9666C7.75249 18.2937 8.15442 18.5537 8.59817 18.7311C9.04192 18.9086 9.51853 19 10 19C10.4815 19 10.9581 18.9086 11.4018 18.7311C11.8456 18.5537 12.2475 18.2937 12.584 17.9666L13.3616 17.2101L14.4742 17.2232C14.9558 17.2286 15.4337 17.1425 15.8798 16.9699C16.3258 16.7973 16.7311 16.5418 17.0716 16.2182C17.4122 15.8947 17.6812 15.5098 17.8629 15.086C18.0446 14.6623 18.1353 14.2083 18.1296 13.7508L18.1171 12.6939L18.9121 11.9552C19.2565 11.6356 19.5301 11.2538 19.7169 10.8323C19.9038 10.4107 20 9.95796 20 9.50059C20 9.04323 19.9038 8.59047 19.7169 8.16894C19.5301 7.7474 19.2565 7.36559 18.9121 7.04594L18.1158 6.30728L18.1296 5.25037C18.1353 4.79287 18.0446 4.3389 17.8629 3.91517C17.6812 3.49143 17.4122 3.10648 17.0716 2.78296C16.7311 2.45943 16.3258 2.20386 15.8798 2.03128C15.4337 1.85869 14.9558 1.77257 14.4742 1.77799L13.3616 1.78986L12.584 1.03458V1.0334ZM12.9428 8.13967L9.19242 11.7023C9.13436 11.7576 9.06538 11.8015 8.98944 11.8314C8.9135 11.8613 8.83209 11.8767 8.74987 11.8767C8.66766 11.8767 8.58625 11.8613 8.51031 11.8314C8.43437 11.8015 8.36539 11.7576 8.30733 11.7023L6.43214 9.92098C6.37402 9.86578 6.32793 9.80024 6.29647 9.72811C6.26502 9.65598 6.24883 9.57867 6.24883 9.50059C6.24883 9.42252 6.26502 9.34521 6.29647 9.27308C6.32793 9.20095 6.37402 9.13541 6.43214 9.0802C6.49026 9.025 6.55925 8.9812 6.63518 8.95133C6.71111 8.92145 6.7925 8.90607 6.87469 8.90607C6.95687 8.90607 7.03826 8.92145 7.11419 8.95133C7.19012 8.9812 7.25911 9.025 7.31723 9.0802L8.74987 10.4423L12.0577 7.29888C12.1751 7.18739 12.3343 7.12475 12.5003 7.12475C12.6662 7.12475 12.8254 7.18739 12.9428 7.29888C13.0602 7.41038 13.1261 7.5616 13.1261 7.71928C13.1261 7.87695 13.0602 8.02817 12.9428 8.13967Z" fill="#4EC49A"/>
</svg>
