<svg width="56" height="45" viewBox="0 0 56 45" fill="none" xmlns="http://www.w3.org/2000/svg">
<path d="M34.8703 14.2521C34.9371 14.4988 35.0519 14.7299 35.2081 14.9322C35.3643 15.1345 35.5588 15.304 35.7805 15.4311C36.0023 15.5582 36.2469 15.6403 36.5004 15.6728C36.7539 15.7053 37.0113 15.6874 37.2579 15.6204L43.796 13.848C44.0425 13.7815 44.2735 13.667 44.4758 13.5111C44.678 13.3553 44.8476 13.1611 44.9747 12.9397C45.1019 12.7183 45.1842 12.4739 45.2168 12.2207C45.2495 11.9675 45.2319 11.7103 45.1652 11.4638L43.9787 7.07638C43.8436 6.57802 43.516 6.15374 43.0681 5.89682C42.6202 5.63991 42.0886 5.57141 41.5902 5.70638L35.0521 7.47877C34.5544 7.61449 34.1308 7.94203 33.8741 8.38959C33.6175 8.83715 33.5487 9.36821 33.683 9.86636L34.8703 14.2521ZM21.714 14.3718C21.5781 14.869 21.2507 15.292 20.8035 15.5481C20.3563 15.8043 19.8257 15.8727 19.3282 15.7384L12.7909 13.966C12.5443 13.8997 12.3131 13.7854 12.1106 13.6296C11.9082 13.4738 11.7385 13.2796 11.6111 13.0582C11.4838 12.8368 11.4014 12.5924 11.3686 12.3391C11.3358 12.0857 11.3533 11.8284 11.4201 11.5819L12.6074 7.19529C12.7427 6.69712 13.0703 6.2731 13.5183 6.0165C13.9662 5.7599 14.4977 5.69174 14.9959 5.82701L21.5322 7.59939C21.7789 7.66602 22.01 7.78059 22.2124 7.93656C22.4148 8.09252 22.5845 8.28683 22.7118 8.50838C22.8391 8.72994 22.9215 8.9744 22.9544 9.2278C22.9872 9.4812 22.9698 9.73859 22.9031 9.98526L21.714 14.3718Z" fill="#009232"/>
<path d="M26.9088 9.28214C27.3836 10.5677 27.9678 12.272 28.2875 14.0521C28.6269 15.9719 27.9109 17.0282 26.5642 18.2087C26.1696 18.5507 26.0351 19.0565 26.2092 19.5313C26.3927 20.0164 26.8675 20.3559 27.3655 20.3559C27.6524 20.3559 27.9273 20.249 28.1608 20.044C29.3094 19.0436 30.1675 18.1096 30.6208 16.7965C31.1602 15.2447 30.7199 13.4335 30.3942 12.1109C30.0305 10.6358 29.5015 9.19253 28.9862 7.79409L28.8432 7.41066C28.0764 5.32723 27.8937 3.75819 29.206 1.8962C29.4722 1.51277 29.511 1.06731 29.3085 0.671815C28.9139 -0.087286 27.7136 -0.219978 27.1949 0.517582C26.4453 1.57912 25.6836 2.91379 25.7138 4.74563C25.7413 6.16991 26.2437 7.50286 26.7296 8.79359L26.9132 9.28041" fill="#009232"/>
<path d="M27.1689 19.5765C26.9922 19.1043 27.1284 18.5977 27.5213 18.2548C28.8706 17.0761 29.5875 16.018 29.2445 14.1C28.9283 12.3198 28.3424 10.619 27.8685 9.32996L27.685 8.84141C27.2025 7.55154 26.6975 6.21859 26.6717 4.79431C26.639 2.95902 27.4006 1.62694 28.152 0.566264C28.2709 0.393075 28.4294 0.271585 28.6026 0.189729C28.0874 -0.0360192 27.4222 0.0630689 27.0698 0.566264C26.3193 1.62608 25.561 2.95902 25.5886 4.79431C25.6179 6.21859 26.1159 7.55154 26.6045 8.84141L26.7846 9.32996C27.2628 10.6155 27.8478 12.3198 28.1649 14.1C28.5044 16.018 27.7884 17.0761 26.4416 18.2548C26.0453 18.5977 25.9109 19.1043 26.0892 19.5765C26.2685 20.0633 26.7432 20.4037 27.2404 20.4037C27.4265 20.4037 27.6083 20.3511 27.7798 20.2624C27.4977 20.1177 27.2797 19.8732 27.168 19.5765" fill="#009232"/>
<path d="M5.82771 14.2861C13.0517 2.4128 23.9393 10.6724 23.9393 10.6724C24.645 11.2049 25.9469 11.6444 26.8283 11.6478L29.7476 11.6495C30.6325 11.6495 31.9353 11.2118 32.6392 10.6759C32.6392 10.6759 43.526 2.41797 50.7508 14.2879C57.9808 26.1569 55.0676 39.0823 55.0676 39.0823C54.5549 42.2479 52.8747 44.3598 49.7013 44.0918C46.5374 43.8273 39.671 35.572 39.671 35.572C39.1058 34.8904 37.9176 34.3338 37.031 34.3338L19.5518 34.3295C18.6704 34.3295 17.483 34.8861 16.9161 35.5642C16.9161 35.5642 10.0446 43.8273 6.88063 44.091C3.70809 44.3563 2.02531 42.2402 1.51953 39.078C1.51953 39.0797 -1.3971 26.1543 5.82771 14.2861Z" fill="#009232"/>
<path d="M9.70237 39.0316C9.70237 39.0316 6.78574 26.1071 14.0097 14.2389C15.8174 11.2697 17.8534 9.55853 19.8921 8.66329C16.0647 7.32862 10.2073 6.98397 5.74747 14.3113C-1.4739 26.1838 1.43929 39.1057 1.43929 39.1057C1.94679 42.2714 3.63215 44.3841 6.80038 44.1161C7.82401 44.0343 9.2345 43.1089 10.6752 41.9035C10.1995 41.1108 9.87901 40.1371 9.70323 39.0316H9.70237ZM35.0129 11.5963H37.9304C38.8127 11.5997 40.1146 11.1603 40.8195 10.627C40.8195 10.627 42.3282 9.48357 44.5943 8.65812C38.5542 6.1568 32.559 10.7019 32.559 10.7019C32.5081 10.739 32.4564 10.7769 32.4013 10.8122C33.1363 11.2577 34.2348 11.5954 35.012 11.5954L35.0129 11.5963ZM47.8495 35.5248C47.2869 34.8432 46.0987 34.2857 45.2138 34.2857L27.7347 34.284C27.5279 34.2876 27.3222 34.3139 27.1212 34.3624H36.9524C37.8356 34.3624 39.0264 34.919 39.5899 35.6006C39.5899 35.6006 46.458 43.8594 49.6219 44.1239C51.7338 44.3005 53.1831 43.4225 54.068 41.8811C51.0367 39.3539 47.8495 35.5248 47.8495 35.5248Z" fill="#009232"/>
<path d="M21.1498 20.3068C21.1295 20.0454 21.1212 19.7832 21.1249 19.521C21.1235 19.4782 21.1339 19.4359 21.155 19.3987C21.059 19.211 20.9382 19.0371 20.7957 18.8817C20.7652 18.8514 20.7429 18.8138 20.731 18.7725C20.7191 18.7312 20.7179 18.6875 20.7276 18.6456H17.1019V14.9983H13.1849V18.6456H10.0391V22.6229H13.1849V25.574H17.1019V22.6229H20.9362C20.9586 21.9 21.1343 21.1771 21.2214 20.4567C21.1798 20.4174 21.1543 20.3639 21.1498 20.3068Z" fill="#A2ABAF"/>
<path d="M17.1191 14.9004C17.1191 14.3378 16.6642 13.8811 16.1033 13.8811H14.2068C13.6459 13.8811 13.1875 14.3378 13.1875 14.9004C13.1875 15.4613 13.645 15.918 14.2068 15.918H16.1033C16.2368 15.9179 16.369 15.8915 16.4923 15.8403C16.6156 15.7891 16.7276 15.7141 16.822 15.6196C16.9163 15.5251 16.9911 15.413 17.0421 15.2896C17.0931 15.1662 17.1193 15.0339 17.1191 14.9004Z" fill="#A2ABAF"/>
<path d="M10.0391 22.5653V18.6492H13.1547V15.8359H17.132V18.6492H20.7811V22.5653H17.132V25.5776H13.1547V22.5653H10.0391Z" fill="#A2ABAF"/>
<path d="M20.8809 22.5741C21.4427 22.5741 21.8985 22.1183 21.8985 21.5556V19.6609C21.8877 19.3983 21.7757 19.15 21.5861 18.968C21.3964 18.786 21.1437 18.6843 20.8809 18.6843C20.618 18.6843 20.3653 18.786 20.1757 18.968C19.986 19.15 19.8741 19.3983 19.8633 19.6609V21.5556C19.8631 21.6894 19.8892 21.8218 19.9403 21.9454C19.9913 22.0691 20.0662 22.1814 20.1608 22.276C20.2553 22.3706 20.3676 22.4456 20.4911 22.4968C20.6147 22.5479 20.7471 22.5742 20.8809 22.5741Z" fill="#A2ABAF"/>
<path d="M9.1362 20.9628C9.16291 21.2256 9.16291 21.485 9.16291 21.7478C9.16418 21.7901 9.15343 21.832 9.13189 21.8684C9.22495 22.0502 9.34299 22.2243 9.48861 22.3871C9.55668 22.4612 9.57822 22.5465 9.5584 22.6215H13.1833V26.2697H17.1029V22.6215H20.247V18.645H17.1029V15.6965H13.1833V18.645H9.34902C9.32921 19.3688 9.15257 20.0909 9.06641 20.8103C9.10716 20.8512 9.13192 20.9053 9.1362 20.9628Z" fill="#A2ABAF"/>
<path d="M13.167 26.3678C13.167 26.9305 13.6254 27.388 14.1906 27.388H16.0828C16.6446 27.388 17.1021 26.9305 17.1021 26.3678C17.1021 25.8086 16.6446 25.3494 16.0828 25.3494H14.1906C13.6254 25.3494 13.167 25.8086 13.167 26.3678Z" fill="#A2ABAF"/>
<path d="M20.2469 18.7045V22.6206H17.1312V25.4356H13.1522V22.6206H9.50488V18.7045H13.1522V15.6965H17.1312V18.7045H20.2469Z" fill="#A2ABAF"/>
<path d="M9.40638 18.6926C9.27279 18.6926 9.14051 18.719 9.01709 18.7701C8.89368 18.8213 8.78156 18.8962 8.68714 18.9907C8.59271 19.0852 8.51784 19.1974 8.4668 19.3209C8.41575 19.4443 8.38954 19.5766 8.38965 19.7102V21.6041C8.38965 21.874 8.49686 22.1328 8.68769 22.3236C8.87853 22.5145 9.13736 22.6217 9.40724 22.6217C9.67712 22.6217 9.93595 22.5145 10.1268 22.3236C10.3176 22.1328 10.4248 21.874 10.4248 21.6041V19.7102C10.4249 19.5765 10.3987 19.444 10.3475 19.3205C10.2964 19.1969 10.2213 19.0846 10.1267 18.9901C10.0321 18.8956 9.9198 18.8207 9.79619 18.7696C9.67258 18.7186 9.54011 18.6924 9.40638 18.6926Z" fill="#A2ABAF"/>
<path d="M20.6689 19.9545C20.6463 19.6935 20.6363 19.4315 20.6388 19.1696C20.6388 19.1222 20.6525 19.0825 20.6689 19.0489C20.5739 18.8611 20.4536 18.6872 20.3113 18.5319C20.2819 18.5011 20.2604 18.4636 20.2486 18.4226C20.2367 18.3817 20.2349 18.3385 20.2433 18.2967H16.6218V14.6494H12.7048V18.2967H9.55469V22.2757H12.7048V25.2225H16.6218V22.2757H20.4526C20.4751 21.5494 20.6525 20.8265 20.7379 20.107C20.6968 20.0664 20.6723 20.0121 20.6689 19.9545Z" fill="#CBD5DC"/>
<path d="M16.6312 14.551C16.6312 13.9901 16.1745 13.5334 15.6136 13.5334H13.718C13.5845 13.5336 13.4523 13.56 13.329 13.6112C13.2057 13.6624 13.0937 13.7374 12.9993 13.8318C12.905 13.9263 12.8302 14.0385 12.7792 14.1619C12.7282 14.2853 12.702 14.4175 12.7021 14.551C12.7019 14.6846 12.728 14.817 12.779 14.9405C12.8299 15.064 12.9047 15.1762 12.999 15.2708C13.0934 15.3654 13.2054 15.4404 13.3288 15.4917C13.4522 15.5429 13.5844 15.5694 13.718 15.5695H15.6136C16.1745 15.5695 16.6312 15.1137 16.6312 14.551Z" fill="#CBD5DC"/>
<path d="M9.55273 22.2169V18.2991H12.671V15.4875H16.6474V18.2991H20.2965V22.2169H16.6474V25.2249H12.671V22.2169H9.55273Z" fill="#CBD5DC"/>
<path d="M20.3906 22.2307C20.9576 22.2307 21.4117 21.7732 21.4117 21.2105V19.3167C21.4118 19.1827 21.3854 19.0501 21.3341 18.9263C21.2828 18.8026 21.2075 18.6902 21.1127 18.5957C21.0178 18.5011 20.9052 18.4262 20.7812 18.3753C20.6573 18.3244 20.5246 18.2985 20.3906 18.2991C19.8314 18.2991 19.373 18.7532 19.373 19.3167V21.2105C19.373 21.7732 19.8314 22.2307 20.3906 22.2307Z" fill="#CBD5DC"/>
<path d="M8.65096 20.6143C8.67336 20.8754 8.67509 21.1391 8.67509 21.3984C8.67466 21.4411 8.66588 21.4832 8.64924 21.5225C8.73971 21.7043 8.85603 21.8758 9.00165 22.0386C9.07058 22.1127 9.0904 22.198 9.07144 22.2747H12.6963V25.9203H16.6133V22.2747H19.7592V18.2974H16.6133V15.3472H12.6963V18.2974H8.86637C8.84483 19.0212 8.66389 19.7441 8.58203 20.4627C8.62128 20.5041 8.64554 20.5575 8.65096 20.6143Z" fill="#CBD5DC"/>
<path d="M12.6856 26.0202C12.6849 26.1543 12.7107 26.2871 12.7615 26.4111C12.8124 26.5351 12.8873 26.6479 12.9818 26.7428C13.0764 26.8378 13.1888 26.9131 13.3126 26.9645C13.4364 27.0159 13.5691 27.0423 13.7032 27.0421H15.597C15.8619 27.0344 16.1133 26.9238 16.298 26.7337C16.4826 26.5437 16.5859 26.2891 16.5859 26.0241C16.5859 25.7591 16.4826 25.5046 16.298 25.3145C16.1133 25.1244 15.8619 25.0138 15.597 25.0061H13.7032C13.1396 25.0061 12.6856 25.4602 12.6856 26.0202Z" fill="#CBD5DC"/>
<path d="M19.7563 18.3517V22.2696H16.6432V25.0811H12.6641V22.2696H9.01855V18.3517H12.6641V15.342H16.6432V18.3517H19.7563Z" fill="#CBD5DC"/>
<path d="M8.91959 18.343C8.35867 18.343 7.89941 18.7988 7.89941 19.3641V21.2562C7.90712 21.5213 8.01785 21.773 8.20809 21.9577C8.39832 22.1425 8.65309 22.2459 8.9183 22.2459C9.18351 22.2459 9.43827 22.1425 9.62851 21.9577C9.81874 21.773 9.92947 21.5213 9.93718 21.2562V19.3641C9.93718 18.7997 9.48224 18.343 8.91959 18.343Z" fill="#CBD5DC"/>
<path d="M47.7084 15.6724C47.7084 16.2982 47.4598 16.8984 47.0173 17.3409C46.5748 17.7834 45.9746 18.032 45.3488 18.032C44.723 18.032 44.1229 17.7834 43.6804 17.3409C43.2379 16.8984 42.9893 16.2982 42.9893 15.6724C42.9897 15.0464 43.2386 14.4462 43.6812 14.0035C44.1239 13.5609 44.7241 13.312 45.3501 13.3115C45.6601 13.3115 45.9669 13.3726 46.2532 13.4913C46.5395 13.61 46.7996 13.7839 47.0186 14.0032C47.2376 14.2224 47.4113 14.4827 47.5297 14.7691C47.648 15.0555 47.7088 15.3625 47.7084 15.6724Z" fill="#FAAA33"/>
<path d="M38.9194 19.8612C40.2237 19.8612 41.2811 18.8038 41.2811 17.4994C41.2811 16.1951 40.2237 15.1377 38.9194 15.1377C37.615 15.1377 36.5576 16.1951 36.5576 17.4994C36.5576 18.8038 37.615 19.8612 38.9194 19.8612Z" fill="#FAAA33"/>
<path d="M50.0683 21.9003C50.0674 22.5269 49.8177 23.1275 49.3743 23.5702C48.9308 24.0129 48.3297 24.2614 47.7031 24.2612C47.0849 24.2494 46.496 23.9955 46.0629 23.5541C45.6299 23.1127 45.3873 22.5191 45.3873 21.9007C45.3873 21.2824 45.6299 20.6887 46.0629 20.2474C46.496 19.806 47.0849 19.5521 47.7031 19.5403C48.0134 19.5399 48.3206 19.6007 48.6074 19.7191C48.8942 19.8376 49.1548 20.0113 49.3745 20.2304C49.5941 20.4496 49.7684 20.7099 49.8874 20.9964C50.0065 21.2829 50.0679 21.59 50.0683 21.9003ZM43.637 23.7235C43.6204 24.3384 43.3645 24.9225 42.9237 25.3515C42.4829 25.7806 41.8921 26.0206 41.277 26.0206C40.6619 26.0206 40.0711 25.7806 39.6303 25.3515C39.1895 24.9225 38.9336 24.3384 38.917 23.7235C38.9167 23.4133 38.9774 23.106 39.0958 22.8192C39.2143 22.5324 39.388 22.2718 39.6072 22.0522C39.8263 21.8325 40.0866 21.6582 40.3731 21.5392C40.6596 21.4201 40.9668 21.3587 41.277 21.3583C41.5873 21.3587 41.8944 21.4201 42.1809 21.5392C42.4675 21.6582 42.7277 21.8325 42.9469 22.0522C43.166 22.2718 43.3398 22.5324 43.4582 22.8192C43.5766 23.106 43.6374 23.4133 43.637 23.7235Z" fill="#FAAA33"/>
</svg>
