<svg width="43" height="80" viewBox="0 0 43 80" fill="none" xmlns="http://www.w3.org/2000/svg">
<path d="M38.994 0.79541H4.15122C3.20812 0.804429 2.30721 1.1876 1.64654 1.86068C0.985877 2.53375 0.619541 3.44165 0.628076 4.38475V76.1181C0.620108 77.061 0.986627 77.9686 1.64717 78.6415C2.30772 79.3145 3.2083 79.6978 4.15122 79.7074H38.994C39.9375 79.6984 40.8389 79.3154 41.5002 78.6424C42.1616 77.9694 42.5289 77.0616 42.5215 76.1181V4.38475C42.5294 3.44108 42.1623 2.53287 41.5008 1.8598C40.8394 1.18672 39.9377 0.803868 38.994 0.79541V0.79541ZM40.3158 73.8889C40.3158 75.7764 38.9022 77.3053 37.1599 77.3053H5.98753C4.2409 77.3053 2.82737 75.7786 2.82737 73.8889V7.10504C2.82737 3.26161 4.2409 3.07157 5.98753 3.07157H12.2331C12.5961 3.07157 12.8929 3.48368 12.8929 3.994V4.20752C12.8929 5.40539 13.5484 5.40966 14.3513 5.40966H28.7919C29.6033 5.40966 30.2545 5.40966 30.2545 4.20752V3.994C30.2545 3.48368 30.547 3.07157 30.9164 3.07157H37.162C38.9044 3.07157 40.3179 3.5819 40.3179 7.10504L40.3158 73.8889Z" fill="#009232"/>
<path d="M40.3177 7.16262V73.9465C40.3177 75.8361 38.9041 77.3628 37.1618 77.3628H5.9873C4.24068 77.3628 2.82715 75.8361 2.82715 73.9465V7.16262C2.82715 3.31919 4.24068 3.12915 5.9873 3.12915H12.2329C12.5959 3.12915 12.8927 3.54125 12.8927 4.05371V4.26723C12.8927 5.4651 13.5482 5.46937 14.351 5.46937H28.7895C29.6009 5.46937 30.2522 5.46937 30.2522 4.26723V4.05371C30.2522 3.54125 30.5447 3.12915 30.9141 3.12915H37.1618C38.9041 3.12915 40.3177 3.64161 40.3177 7.16262Z" fill="white"/>
<path opacity="0.1" d="M40.3177 15.6909V73.9488C40.3177 75.8363 38.9041 77.3651 37.1618 77.3651H5.9873C4.24068 77.3651 2.82715 75.8384 2.82715 73.9488V30.2362C11.0329 29.1835 19.2685 41.1664 26.9084 37.6348C33.897 34.3977 33.5831 24.1657 36.1774 19.5002C37.1066 17.814 38.5601 16.4767 40.3177 15.6909V15.6909Z" fill="#C44E4E"/>
<path opacity="0.2" d="M40.3177 54.0482V73.9486C40.3177 75.8362 38.9041 77.365 37.1618 77.365H5.9873C4.24068 77.365 2.82715 75.8383 2.82715 73.9486V47.9329C7.27912 55.7115 12.2585 57.9514 16.7959 56.8005C21.9717 55.4895 29.381 48.7848 36.3525 51.1144C37.9484 51.6538 39.3351 52.6798 40.3177 54.0482Z" fill="#C44E4E"/>
<path d="M23.5433 3.92189H19.6038C19.5392 3.92189 19.4773 3.89625 19.4316 3.8506C19.386 3.80495 19.3604 3.74303 19.3604 3.67848C19.3604 3.61392 19.386 3.552 19.4316 3.50635C19.4773 3.4607 19.5392 3.43506 19.6038 3.43506H23.5433C23.6078 3.43506 23.6698 3.4607 23.7154 3.50635C23.7611 3.552 23.7867 3.61392 23.7867 3.67848C23.7867 3.74303 23.7611 3.80495 23.7154 3.8506C23.6698 3.89625 23.6078 3.92189 23.5433 3.92189Z" fill="white"/>
<path d="M11.1571 4.57061L11.0973 4.6304L11.0631 4.66456C10.9869 4.5878 10.8963 4.52688 10.7964 4.48531C10.6966 4.44373 10.5895 4.42233 10.4813 4.42233C10.3731 4.42233 10.266 4.44373 10.1662 4.48531C10.0663 4.52688 9.97565 4.5878 9.89943 4.66456L9.8674 4.6304L9.80762 4.57061L9.88449 4.50228C9.93802 4.45816 9.99684 4.42086 10.0596 4.39125C10.1336 4.35364 10.2127 4.32702 10.2945 4.31225C10.3329 4.31225 10.3713 4.31225 10.4119 4.29517H10.5122H10.5934C10.6662 4.30465 10.7377 4.32183 10.8069 4.34641C10.8569 4.36572 10.9054 4.38855 10.9521 4.41474C11.0018 4.44232 11.0484 4.47526 11.0909 4.51296L11.155 4.57061H11.1571Z" fill="#9C9C9C"/>
<path d="M10.0922 4.85432L9.99609 4.76037C10.1002 4.65386 10.237 4.58542 10.3847 4.56606C10.4901 4.54973 10.598 4.55862 10.6993 4.59203C10.8006 4.62544 10.8926 4.6824 10.9676 4.75823L10.8715 4.85432C10.8205 4.80287 10.7598 4.76203 10.6929 4.73415C10.6261 4.70628 10.5543 4.69193 10.4819 4.69193C10.4094 4.69193 10.3377 4.70628 10.2708 4.73415C10.2039 4.76203 10.1432 4.80287 10.0922 4.85432V4.85432Z" fill="#9C9C9C"/>
<path d="M10.7758 4.95073L10.6819 5.04468C10.6557 5.0184 10.6246 4.99755 10.5903 4.98333C10.5561 4.9691 10.5193 4.96178 10.4823 4.96178C10.4452 4.96178 10.4084 4.9691 10.3742 4.98333C10.3399 4.99755 10.3088 5.0184 10.2826 5.04468L10.1865 4.95073C10.2251 4.91173 10.2709 4.88078 10.3215 4.85965C10.3721 4.83852 10.4264 4.82764 10.4812 4.82764C10.536 4.82764 10.5903 4.83852 10.6409 4.85965C10.6914 4.88078 10.7373 4.91173 10.7758 4.95073Z" fill="#9C9C9C"/>
<path d="M10.5663 5.12984C10.5663 5.14674 10.5613 5.16325 10.5519 5.17729C10.5425 5.19134 10.5292 5.20229 10.5136 5.20875C10.498 5.21522 10.4808 5.21691 10.4643 5.21361C10.4477 5.21032 10.4325 5.20218 10.4205 5.19024C10.4086 5.17829 10.4004 5.16307 10.3971 5.14651C10.3939 5.12994 10.3955 5.11276 10.402 5.09716C10.4085 5.08155 10.4194 5.06821 10.4335 5.05883C10.4475 5.04944 10.464 5.04443 10.4809 5.04443C10.4921 5.04443 10.5032 5.04664 10.5136 5.05094C10.524 5.05523 10.5334 5.06152 10.5413 5.06945C10.5492 5.07738 10.5555 5.0868 10.5598 5.09716C10.5641 5.10752 10.5663 5.11863 10.5663 5.12984V5.12984Z" fill="#9C9C9C"/>
<path d="M5.27442 4.75415C5.274 4.70456 5.28835 4.65596 5.31564 4.61456C5.34292 4.57315 5.38192 4.5408 5.42765 4.52162C5.47339 4.50245 5.52379 4.49732 5.57245 4.50689C5.62111 4.51647 5.66582 4.5403 5.70089 4.57537C5.73595 4.61044 5.75979 4.65514 5.76936 4.7038C5.77893 4.75246 5.77381 4.80287 5.75463 4.84861C5.73546 4.89434 5.70311 4.93334 5.6617 4.96062C5.62029 4.98791 5.5717 5.00226 5.52211 5.00183C5.45642 5.00183 5.39342 4.97574 5.34697 4.92929C5.30052 4.88284 5.27442 4.81984 5.27442 4.75415V4.75415Z" fill="#9C9C9C"/>
<path d="M6.0547 4.75416C6.05427 4.70466 6.06856 4.65615 6.09576 4.61478C6.12295 4.57342 6.16182 4.54107 6.20743 4.52183C6.25304 4.5026 6.30333 4.49734 6.35193 4.50674C6.40054 4.51614 6.44525 4.53976 6.4804 4.57461C6.51555 4.60946 6.53956 4.65397 6.54937 4.70249C6.55919 4.75101 6.55437 4.80135 6.53552 4.84712C6.51668 4.8929 6.48466 4.93204 6.44353 4.95959C6.4024 4.98713 6.35402 5.00184 6.30452 5.00184C6.23863 5.00185 6.17541 4.97582 6.12862 4.92943C6.08183 4.88304 6.05526 4.82004 6.0547 4.75416Z" fill="#9C9C9C"/>
<path d="M6.84083 4.75415C6.84041 4.70456 6.85475 4.65596 6.88204 4.61456C6.90933 4.57315 6.94832 4.5408 6.99406 4.52162C7.03979 4.50245 7.0902 4.49732 7.13886 4.50689C7.18752 4.51647 7.23223 4.5403 7.26729 4.57537C7.30236 4.61044 7.3262 4.65514 7.33577 4.7038C7.34534 4.75246 7.34021 4.80287 7.32104 4.84861C7.30187 4.89434 7.26952 4.93334 7.22811 4.96062C7.1867 4.98791 7.13811 5.00226 7.08852 5.00183C7.02283 5.00183 6.95982 4.97574 6.91337 4.92929C6.86692 4.88284 6.84083 4.81984 6.84083 4.75415Z" fill="#9C9C9C"/>
<path d="M7.62013 4.75416C7.6197 4.70466 7.634 4.65615 7.66119 4.61478C7.68838 4.57342 7.72725 4.54107 7.77286 4.52183C7.81847 4.5026 7.86877 4.49734 7.91737 4.50674C7.96597 4.51614 8.01068 4.53976 8.04583 4.57461C8.08098 4.60946 8.10499 4.65397 8.11481 4.70249C8.12462 4.75101 8.1198 4.80135 8.10095 4.84712C8.08211 4.8929 8.05009 4.93204 8.00896 4.95959C7.96783 4.98713 7.91945 5.00184 7.86995 5.00184C7.80406 5.00185 7.74084 4.97582 7.69405 4.92943C7.64726 4.88304 7.62069 4.82004 7.62013 4.75416Z" fill="#9C9C9C"/>
<path d="M8.40431 4.75415C8.40388 4.70456 8.41823 4.65596 8.44552 4.61456C8.47281 4.57315 8.5118 4.5408 8.55754 4.52162C8.60327 4.50245 8.65368 4.49732 8.70234 4.50689C8.75099 4.51647 8.7957 4.5403 8.83077 4.57537C8.86584 4.61044 8.88967 4.65514 8.89924 4.7038C8.90881 4.75246 8.90369 4.80287 8.88452 4.84861C8.86534 4.89434 8.83299 4.93334 8.79159 4.96062C8.75018 4.98791 8.70158 5.00226 8.65199 5.00183C8.5863 5.00183 8.5233 4.97574 8.47685 4.92929C8.4304 4.88284 8.40431 4.81984 8.40431 4.75415Z" fill="#9C9C9C"/>
<path d="M37.5056 5.29699H35.4814V4.35962H37.5056V5.29699ZM35.5839 5.19236H37.3989V4.46211H35.5839V5.19236Z" fill="#9C9C9C"/>
<path d="M36.954 4.51709H35.6494V5.13631H36.954V4.51709Z" fill="#9C9C9C"/>
<path d="M37.6862 4.57715H37.5068V5.07893H37.6862V4.57715Z" fill="#9C9C9C"/>
<path d="M14.3805 21.3088V21.9045H11.1222V21.3088H12.4866V17.1857C12.4137 17.2838 12.324 17.3684 12.2218 17.4355C11.9532 17.6275 11.6564 17.7766 11.3421 17.8775C11.2046 17.925 11.0605 17.9509 10.915 17.9544V17.3138C11.0844 17.3087 11.2506 17.2664 11.4019 17.1899C11.5758 17.1073 11.7429 17.0109 11.9015 16.9017C12.0408 16.8066 12.1741 16.7033 12.3008 16.5921C12.3714 16.5383 12.4327 16.4734 12.4823 16.3999H13.1549V21.296L14.3805 21.3088Z" fill="#9C9C9C"/>
<path d="M19.9508 19.0861C19.9547 19.4836 19.8926 19.879 19.7672 20.2562C19.6557 20.5914 19.485 20.9038 19.2632 21.1787C19.0547 21.4331 18.794 21.6399 18.4988 21.7851C18.1983 21.9268 17.8702 22.0003 17.538 22.0003C17.2057 22.0003 16.8776 21.9268 16.5771 21.7851C16.2811 21.6401 16.0197 21.4333 15.8106 21.1787C15.5888 20.9038 15.4181 20.5914 15.3067 20.2562C15.0618 19.4961 15.0618 18.6783 15.3067 17.9182C15.4176 17.5828 15.5884 17.2703 15.8106 16.9957C16.0197 16.7408 16.2801 16.5327 16.575 16.3851C16.8743 16.2393 17.2029 16.1636 17.5358 16.1636C17.8688 16.1636 18.1974 16.2393 18.4967 16.3851C18.7915 16.5327 19.052 16.7408 19.2611 16.9957C19.4833 17.2703 19.654 17.5828 19.765 17.9182C19.8911 18.2945 19.9538 18.6892 19.9508 19.0861V19.0861ZM19.2867 19.0861C19.2909 18.7675 19.247 18.45 19.1565 18.1445C19.0813 17.8826 18.959 17.6366 18.7956 17.4185C18.6491 17.2225 18.4609 17.0614 18.2447 16.9466C18.0261 16.8348 17.7836 16.7776 17.538 16.7801C17.2889 16.7766 17.0427 16.8338 16.8205 16.9466C16.6033 17.0607 16.4143 17.2219 16.2675 17.4185C16.1058 17.6376 15.9837 17.8833 15.9067 18.1445C15.733 18.761 15.733 19.4134 15.9067 20.0299C15.9837 20.2911 16.1058 20.5368 16.2675 20.7559C16.414 20.9512 16.6031 21.1104 16.8205 21.2214C17.0432 21.3325 17.2892 21.3889 17.538 21.3858C17.7833 21.3879 18.0256 21.3315 18.2447 21.2214C18.4611 21.1097 18.6495 20.9506 18.7956 20.7559C18.959 20.5378 19.0813 20.2918 19.1565 20.0299C19.2472 19.7237 19.2911 19.4055 19.2867 19.0861V19.0861Z" fill="#9C9C9C"/>
<path d="M21.1035 17.8642V16.9226H21.663V17.8642H21.1035ZM21.1035 21.9041V20.9625H21.663V21.9041H21.1035Z" fill="#9C9C9C"/>
<path d="M25.5834 19.6348C25.9822 19.6918 26.3446 19.8978 26.5977 20.2113C26.8571 20.5425 26.9916 20.9545 26.9777 21.375C26.9805 21.6478 26.9267 21.9183 26.8197 22.1693C26.7161 22.4052 26.5615 22.6152 26.367 22.7843C26.1608 22.9603 25.9222 23.0945 25.6646 23.1793C25.3717 23.2748 25.0651 23.3217 24.7571 23.3181C24.3124 23.3284 23.8721 23.2279 23.4759 23.0255C23.125 22.8428 22.8366 22.5595 22.6475 22.212L23.1001 21.7978C23.2333 22.079 23.4474 22.3139 23.7151 22.4725C24.0323 22.6494 24.392 22.7358 24.7549 22.7223C25.163 22.7458 25.5658 22.6206 25.8888 22.37C26.0292 22.245 26.1395 22.0897 26.2113 21.9159C26.283 21.742 26.3144 21.5542 26.303 21.3665C26.3131 21.1711 26.2802 20.9758 26.2063 20.7947C26.1325 20.6135 26.0197 20.4507 25.8759 20.3181C25.5215 20.0398 25.0764 19.9029 24.6268 19.9337H24.3855V19.3764H24.646C25.0528 19.4031 25.4555 19.2818 25.7799 19.0348C25.9082 18.9254 26.0103 18.7887 26.0787 18.6345C26.1471 18.4804 26.1799 18.3129 26.1749 18.1444C26.178 17.9684 26.1416 17.794 26.0681 17.6341C25.9997 17.4905 25.8997 17.3642 25.7756 17.2647C25.644 17.1618 25.494 17.085 25.3336 17.0383C25.1521 16.9891 24.9643 16.9668 24.7763 16.9721C24.4376 16.965 24.1033 17.0499 23.809 17.2177C23.5318 17.3731 23.3084 17.6092 23.1685 17.8946L22.7414 17.491C22.8216 17.3201 22.9323 17.1652 23.0681 17.0341C23.2111 16.8955 23.3728 16.7776 23.5485 16.6839C23.7378 16.5842 23.9386 16.5082 24.1464 16.4575C24.3665 16.4035 24.5924 16.3763 24.819 16.3764C25.0944 16.373 25.3685 16.4149 25.6304 16.5003C25.8643 16.576 26.0817 16.6955 26.271 16.8526C26.4516 16.9996 26.5974 17.1848 26.698 17.3949C26.7981 17.6154 26.8484 17.8553 26.8453 18.0974C26.8463 18.2851 26.8175 18.4718 26.7599 18.6504C26.7053 18.8213 26.6207 18.9811 26.5101 19.1223C26.3992 19.261 26.2639 19.3782 26.1108 19.4682C25.9477 19.558 25.7685 19.6146 25.5834 19.6348V19.6348Z" fill="#9C9C9C"/>
<path d="M30.8464 23.1257V21.4175H27.6436V20.841L31.0599 16.4167H31.5019V20.8153H32.356V21.4111H31.5019V23.1193L30.8464 23.1257ZM28.3354 20.8153H30.9126V17.4417L28.3354 20.8153Z" fill="#9C9C9C"/>
<path d="M13.3577 24.8509H12.6509V26.6638H12.4544V24.8509H11.752V24.678H13.3619L13.3577 24.8509Z" fill="#9C9C9C"/>
<path d="M13.7716 26.6922C13.7044 26.6974 13.6369 26.6857 13.5753 26.6581C13.5138 26.6305 13.4601 26.5879 13.4193 26.5342C13.331 26.3934 13.2898 26.2281 13.3019 26.0623V25.2083H13.4919V26.0325C13.4919 26.3613 13.6051 26.5278 13.8314 26.5278C13.8873 26.5271 13.9428 26.5177 13.9958 26.5001C14.0497 26.4812 14.1001 26.4538 14.1453 26.4189C14.1918 26.3824 14.2334 26.3401 14.2691 26.293C14.3066 26.2422 14.3361 26.1861 14.3567 26.1264V25.2083H14.5467V26.4211C14.5467 26.4723 14.5702 26.5001 14.615 26.5001V26.6666H14.5595H14.5275C14.507 26.6661 14.4868 26.6615 14.4681 26.6531C14.4494 26.6446 14.4325 26.6325 14.4186 26.6175C14.4042 26.6013 14.3932 26.5824 14.3862 26.5618C14.3792 26.5413 14.3764 26.5196 14.378 26.4979V26.3314C14.317 26.4392 14.2286 26.529 14.1217 26.5916C14.0149 26.6542 13.8933 26.6875 13.7695 26.688L13.7716 26.6922Z" fill="#9C9C9C"/>
<path d="M15.6082 26.6923C15.5102 26.6936 15.413 26.6743 15.3229 26.6357C15.2327 26.5971 15.1517 26.54 15.0851 26.4681C15.0195 26.3974 14.968 26.3147 14.9335 26.2246C14.8594 26.0374 14.8594 25.829 14.9335 25.6417C14.9682 25.5541 15.0188 25.4737 15.083 25.4047C15.1483 25.3359 15.2267 25.2807 15.3136 25.2424C15.406 25.203 15.5056 25.1826 15.6061 25.1826C15.7066 25.1826 15.8061 25.203 15.8986 25.2424C15.9848 25.2808 16.0619 25.3368 16.125 25.4068C16.1891 25.4759 16.2398 25.5563 16.2744 25.6439C16.3097 25.7351 16.3278 25.8321 16.3278 25.93V25.9727C16.3295 25.9833 16.3295 25.9941 16.3278 26.0047H15.0808C15.0859 26.0787 15.1047 26.1511 15.1363 26.2182C15.1646 26.2826 15.2044 26.3412 15.2538 26.3912C15.3018 26.4389 15.3583 26.4772 15.4203 26.5044C15.4836 26.5319 15.552 26.5457 15.621 26.5449C15.668 26.545 15.7147 26.5385 15.7598 26.5257C15.8054 26.5137 15.8492 26.4958 15.8901 26.4723C15.9295 26.4508 15.9649 26.4226 15.9947 26.3891C16.026 26.3588 16.0507 26.3225 16.0673 26.2823L16.2339 26.3271C16.21 26.3811 16.1775 26.4309 16.1378 26.4745C16.0494 26.5647 15.939 26.6302 15.8175 26.6645C15.7492 26.6828 15.6789 26.6921 15.6082 26.6923V26.6923ZM16.1442 25.8595C16.1404 25.7856 16.1222 25.713 16.0908 25.646C16.0628 25.5834 16.0229 25.5269 15.9734 25.4794C15.9258 25.4327 15.8701 25.395 15.8089 25.3684C15.7451 25.3428 15.677 25.3297 15.6082 25.33C15.5401 25.3291 15.4726 25.3419 15.4095 25.3676C15.3464 25.3933 15.2891 25.4313 15.241 25.4794C15.1912 25.5262 15.1519 25.583 15.1257 25.646C15.0954 25.7133 15.078 25.7858 15.0744 25.8595H16.1442Z" fill="#9C9C9C"/>
<path d="M17.105 26.6923C16.9917 26.6919 16.8792 26.6732 16.7719 26.6368C16.6685 26.6026 16.5732 26.5473 16.4922 26.4745L16.5797 26.3464C16.6548 26.4093 16.7391 26.4604 16.8296 26.498C16.9169 26.5309 17.0095 26.5475 17.1029 26.5471C17.201 26.552 17.2984 26.5275 17.3826 26.4767C17.4161 26.4548 17.4434 26.4247 17.4618 26.3891C17.4801 26.3535 17.4889 26.3138 17.4872 26.2738C17.4891 26.2376 17.4794 26.2017 17.4595 26.1713C17.4387 26.1409 17.4109 26.116 17.3783 26.0987C17.3342 26.0759 17.2876 26.058 17.2395 26.0454C17.1861 26.0283 17.1221 26.0133 17.0495 25.9962C16.9769 25.9792 16.8915 25.9557 16.836 25.9343C16.7823 25.9182 16.7313 25.8944 16.6844 25.8639C16.6462 25.8407 16.6151 25.8075 16.5947 25.7678C16.5737 25.7231 16.5634 25.6741 16.5648 25.6247C16.5637 25.5573 16.5791 25.4906 16.6096 25.4304C16.6378 25.3759 16.678 25.3285 16.7271 25.2916C16.7794 25.2545 16.838 25.227 16.9 25.2105C16.9695 25.1911 17.0414 25.1817 17.1135 25.1827C17.2178 25.1811 17.3214 25.1992 17.4189 25.2361C17.4996 25.2687 17.5724 25.3182 17.6324 25.3813L17.5406 25.4923C17.4857 25.4357 17.4185 25.3926 17.3441 25.3663C17.2661 25.3382 17.1837 25.3238 17.1007 25.3236C17.0539 25.3237 17.0073 25.3294 16.9619 25.3407C16.9214 25.3496 16.883 25.3663 16.8488 25.3898C16.8153 25.4101 16.7885 25.4398 16.7719 25.4752C16.7522 25.5127 16.7427 25.5547 16.7441 25.597C16.7428 25.6294 16.7494 25.6616 16.7634 25.6909C16.7784 25.7178 16.8006 25.7399 16.8274 25.755C16.8636 25.7742 16.9015 25.7899 16.9406 25.8019L17.1071 25.8446C17.2011 25.8681 17.2822 25.8895 17.3527 25.913C17.4149 25.9306 17.4745 25.9564 17.5299 25.9898C17.5747 26.0165 17.6122 26.0539 17.6388 26.0987C17.6637 26.1476 17.6762 26.2019 17.6751 26.2567C17.6781 26.3198 17.6652 26.3825 17.6376 26.4392C17.61 26.496 17.5686 26.5448 17.5171 26.5813C17.3958 26.6628 17.2509 26.7018 17.105 26.6923V26.6923Z" fill="#9C9C9C"/>
<path d="M18.5852 26.6914C18.4885 26.6921 18.3929 26.6709 18.3055 26.6294C18.2244 26.5879 18.152 26.5314 18.092 26.4629C18.0302 26.3925 17.9817 26.3114 17.9489 26.2237C17.9142 26.1331 17.8961 26.0369 17.8955 25.9398C17.895 25.84 17.9123 25.7409 17.9468 25.6472C17.9779 25.559 18.025 25.4772 18.0856 25.4059C18.144 25.3363 18.2168 25.2802 18.2991 25.2415C18.3821 25.2009 18.4736 25.1805 18.566 25.1817C18.6828 25.1797 18.7975 25.2132 18.8948 25.2778C18.9819 25.3392 19.0547 25.4185 19.1083 25.5106V24.6223H19.2984V26.4181C19.2984 26.4693 19.3219 26.4971 19.3667 26.4971V26.6636C19.344 26.6661 19.3211 26.6661 19.2984 26.6636C19.2555 26.6634 19.214 26.6483 19.1809 26.6209C19.1657 26.608 19.1534 26.592 19.145 26.5739C19.1365 26.5559 19.132 26.5362 19.1318 26.5163V26.3732C19.0744 26.4677 18.9935 26.5456 18.8969 26.5995C18.8029 26.657 18.6954 26.6887 18.5852 26.6914V26.6914ZM18.6258 26.5248C18.6767 26.5235 18.7272 26.5141 18.7752 26.4971C18.8293 26.478 18.8803 26.4514 18.9268 26.4181C18.9715 26.3865 19.0111 26.3484 19.0443 26.3049C19.0755 26.2636 19.0961 26.2151 19.1041 26.164V25.7134C19.0859 25.6612 19.0584 25.6127 19.0229 25.5704C18.9877 25.5267 18.9468 25.4879 18.9012 25.4551C18.8569 25.4218 18.808 25.3951 18.756 25.3761C18.7065 25.3589 18.6547 25.3496 18.6023 25.3483C18.5279 25.3472 18.4545 25.3649 18.3888 25.3995C18.3259 25.4326 18.2701 25.4776 18.2243 25.5319C18.1789 25.5889 18.1435 25.6531 18.1197 25.722C18.0964 25.7908 18.0841 25.8628 18.0834 25.9355C18.0837 26.0122 18.0982 26.0882 18.1261 26.1597C18.1527 26.2282 18.1918 26.2912 18.2414 26.3455C18.2893 26.3985 18.3474 26.4414 18.4122 26.4714C18.4778 26.5049 18.5501 26.5232 18.6236 26.5248H18.6258Z" fill="#9C9C9C"/>
<path d="M20.0902 26.6918C19.9624 26.6946 19.8384 26.648 19.7443 26.5615C19.7017 26.5197 19.6669 26.4705 19.6418 26.4163C19.6177 26.3604 19.6053 26.3 19.6055 26.2391C19.6052 26.1772 19.6206 26.1162 19.6503 26.0619C19.6815 26.0069 19.7245 25.9595 19.7763 25.9231C19.8356 25.882 19.9012 25.851 19.9706 25.8313C20.0506 25.8092 20.1332 25.7984 20.2162 25.7993C20.292 25.7994 20.3677 25.8058 20.4425 25.8185C20.5156 25.8298 20.5872 25.8492 20.656 25.8761V25.7437C20.6613 25.6316 20.6221 25.5219 20.5471 25.4384C20.5075 25.399 20.46 25.3684 20.4077 25.3486C20.3555 25.3287 20.2997 25.32 20.2439 25.3231C20.1657 25.3248 20.0884 25.3399 20.0154 25.3679C19.9309 25.4018 19.8506 25.4455 19.7763 25.4982L19.7101 25.3722C19.8694 25.2545 20.0609 25.1882 20.2589 25.1822C20.3367 25.1782 20.4145 25.1897 20.4878 25.2161C20.5612 25.2425 20.6285 25.2832 20.6859 25.3359C20.7403 25.3923 20.7824 25.4594 20.8096 25.5329C20.8368 25.6064 20.8485 25.6847 20.8439 25.763V26.4206C20.8439 26.4719 20.8674 26.4996 20.9144 26.4996V26.6662C20.8895 26.6685 20.8645 26.6685 20.8396 26.6662C20.7988 26.668 20.7586 26.6551 20.7265 26.6299C20.713 26.6168 20.7024 26.6012 20.695 26.584C20.6877 26.5668 20.6839 26.5482 20.6838 26.5295V26.4142C20.6183 26.5015 20.5315 26.5706 20.4318 26.6149C20.3253 26.6662 20.2084 26.6925 20.0902 26.6918ZM20.135 26.5466C20.229 26.5472 20.322 26.5283 20.4083 26.4911C20.4831 26.4587 20.5479 26.4071 20.5962 26.3416C20.6127 26.3268 20.6258 26.3086 20.6347 26.2882C20.6427 26.2708 20.6471 26.2519 20.6475 26.2327V25.9957C20.5829 25.9717 20.5165 25.9532 20.4489 25.9402C20.3785 25.9269 20.307 25.9205 20.2354 25.921C20.12 25.916 20.0057 25.945 19.9065 26.0042C19.8692 26.0263 19.838 26.0574 19.816 26.0947C19.794 26.1321 19.7818 26.1744 19.7806 26.2178C19.7809 26.2612 19.7903 26.3042 19.8083 26.3437C19.8249 26.3827 19.8497 26.4176 19.8809 26.4462C19.9129 26.4763 19.9507 26.4995 19.992 26.5146C20.0369 26.5349 20.0856 26.5458 20.135 26.5466V26.5466Z" fill="#9C9C9C"/>
<path d="M21.2974 27.1125H21.3401H21.3807C21.4076 27.1137 21.4345 27.1093 21.4597 27.0996C21.484 27.0844 21.5039 27.063 21.5174 27.0377C21.5423 26.994 21.5637 26.9483 21.5814 26.9011C21.6049 26.8413 21.6369 26.7601 21.6796 26.6598L21.0391 25.2014H21.2334L21.7736 26.4826L22.2754 25.2014H22.4569L21.701 27.0826C21.6803 27.138 21.6449 27.1867 21.5985 27.2235C21.5432 27.2665 21.4741 27.2878 21.4042 27.2833H21.3615H21.3017L21.2974 27.1125Z" fill="#9C9C9C"/>
<path d="M22.6255 26.89L22.6725 26.6552H22.6084V26.3904H22.7942V26.6552L22.7237 26.89H22.6255Z" fill="#9C9C9C"/>
<path d="M25.2919 26.0103C25.2907 26.101 25.2711 26.1904 25.2344 26.2734C25.1977 26.3563 25.1446 26.431 25.0784 26.4928C25.0138 26.5554 24.9377 26.6048 24.8542 26.638C24.7669 26.6743 24.6732 26.6925 24.5787 26.6914C24.4797 26.6926 24.3815 26.6729 24.2905 26.6338C24.204 26.5969 24.1268 26.5415 24.0641 26.4715C23.9984 26.3944 23.9484 26.3051 23.9168 26.2089C23.8805 26.0964 23.8624 25.9789 23.8634 25.8608C23.8616 25.6836 23.8795 25.5067 23.9168 25.3334C23.9454 25.2014 23.9959 25.0751 24.0663 24.9597C24.1253 24.8715 24.2043 24.7983 24.2969 24.7462C24.3898 24.6978 24.4931 24.6728 24.5979 24.6736C24.723 24.6723 24.8458 24.7064 24.9524 24.7718C25.0563 24.8369 25.1388 24.9313 25.1894 25.043L25.0677 25.1562C25.0301 25.0631 24.9654 24.9835 24.8819 24.9277C24.7985 24.8703 24.6992 24.8404 24.5979 24.8423C24.5194 24.8411 24.4419 24.861 24.3737 24.9C24.3036 24.9426 24.2443 25.0011 24.2008 25.0708C24.1497 25.1548 24.1122 25.2463 24.0897 25.3419C24.0611 25.4622 24.0475 25.5856 24.0492 25.7092C24.0897 25.6007 24.1647 25.5084 24.2627 25.4466C24.3635 25.3806 24.4818 25.3464 24.6022 25.3484C24.7831 25.3464 24.9574 25.4163 25.0869 25.5427C25.1481 25.6042 25.1973 25.6766 25.2321 25.7562C25.268 25.8363 25.2883 25.9225 25.2919 26.0103V26.0103ZM24.5915 26.5249C24.6604 26.5246 24.7286 26.5108 24.7922 26.4843C24.8534 26.4577 24.9091 26.42 24.9566 26.3733C25.0041 26.3258 25.0424 26.2701 25.0698 26.2089C25.0964 26.146 25.1102 26.0785 25.1104 26.0103C25.1107 25.9411 25.0961 25.8726 25.0677 25.8096C25.0403 25.7483 25.0019 25.6926 24.9545 25.6451C24.907 25.5984 24.8512 25.5607 24.7901 25.5341C24.7264 25.5078 24.6583 25.494 24.5894 25.4935C24.5205 25.4938 24.4523 25.5076 24.3887 25.5341C24.3275 25.5607 24.2718 25.5984 24.2243 25.6451C24.1768 25.6926 24.1385 25.7483 24.1111 25.8096C24.0844 25.8731 24.0706 25.9413 24.0705 26.0103C24.0704 26.0788 24.085 26.1465 24.1132 26.2089C24.1412 26.2691 24.1795 26.324 24.2264 26.3711C24.2742 26.4191 24.3308 26.4575 24.3929 26.4843C24.4558 26.5109 24.5233 26.5246 24.5915 26.5249V26.5249Z" fill="#9C9C9C"/>
<path d="M28.1364 26.6638V25.0324L27.4125 26.2944H27.2972L26.5734 25.0324V26.6638H26.377V24.678H26.5777L27.3528 26.0381L28.1343 24.678H28.3328V26.6638H28.1364Z" fill="#9C9C9C"/>
<path d="M29.1449 26.6918C29.0171 26.6946 28.8931 26.648 28.799 26.5615C28.7563 26.5197 28.7216 26.4705 28.6965 26.4163C28.6724 26.3604 28.66 26.3 28.6602 26.2391C28.6598 26.1772 28.6753 26.1162 28.705 26.0619C28.7362 26.0069 28.7792 25.9595 28.831 25.9231C28.8903 25.882 28.9559 25.851 29.0253 25.8313C29.1052 25.8092 29.1879 25.7984 29.2708 25.7993C29.3467 25.7994 29.4224 25.8058 29.4972 25.8185C29.5702 25.8298 29.6418 25.8492 29.7107 25.8761V25.7437C29.7159 25.6316 29.6768 25.5219 29.6018 25.4384C29.5621 25.399 29.5147 25.3684 29.4624 25.3486C29.4102 25.3287 29.3544 25.32 29.2986 25.3231C29.2204 25.3248 29.1431 25.3399 29.0701 25.3679C28.9855 25.4018 28.9053 25.4455 28.831 25.4982L28.7648 25.3722C28.9241 25.2545 29.1156 25.1882 29.3135 25.1822C29.3914 25.1782 29.4692 25.1897 29.5425 25.2161C29.6158 25.2425 29.6832 25.2832 29.7406 25.3359C29.795 25.3923 29.8371 25.4594 29.8643 25.5329C29.8915 25.6064 29.9032 25.6847 29.8986 25.763V26.4206C29.8986 26.4719 29.9221 26.4996 29.9691 26.4996V26.6662C29.9442 26.6685 29.9192 26.6685 29.8943 26.6662C29.8535 26.668 29.8133 26.6551 29.7812 26.6299C29.7677 26.6168 29.757 26.6012 29.7497 26.584C29.7424 26.5668 29.7386 26.5482 29.7385 26.5295V26.4142C29.6729 26.5015 29.5862 26.5706 29.4865 26.6149C29.3799 26.6662 29.2631 26.6925 29.1449 26.6918ZM29.1897 26.5466C29.2837 26.5472 29.3767 26.5283 29.463 26.4911C29.5381 26.4593 29.6031 26.4077 29.6509 26.3416C29.6674 26.3268 29.6805 26.3086 29.6893 26.2882C29.6974 26.2708 29.7018 26.2519 29.7022 26.2327V25.9957C29.6376 25.9717 29.5712 25.9532 29.5036 25.9402C29.4332 25.9269 29.3617 25.9205 29.2901 25.921C29.1747 25.916 29.0604 25.945 28.9612 26.0042C28.9239 26.0263 28.8927 26.0574 28.8707 26.0947C28.8487 26.1321 28.8365 26.1744 28.8353 26.2178C28.8356 26.2612 28.845 26.3042 28.863 26.3437C28.8796 26.3827 28.9044 26.4176 28.9356 26.4462C28.9676 26.4763 29.0054 26.4995 29.0466 26.5146C29.0916 26.5349 29.1403 26.5458 29.1897 26.5466V26.5466Z" fill="#9C9C9C"/>
<path d="M30.3502 27.1125H30.3929H30.4334C30.4604 27.1137 30.4873 27.1093 30.5124 27.0996C30.5372 27.085 30.5572 27.0635 30.5701 27.0377C30.5951 26.994 30.6165 26.9483 30.6341 26.9011C30.6576 26.8413 30.6897 26.7601 30.7324 26.6598L30.0918 25.2014H30.2861L30.8263 26.4826L31.3281 25.2014H31.5096L30.7559 27.0868C30.7352 27.1423 30.6997 27.191 30.6534 27.2278C30.5981 27.2708 30.529 27.2921 30.4591 27.2875H30.4057H30.3459L30.3502 27.1125Z" fill="#9C9C9C"/>
<path d="M35.4541 73.8955C35.1593 73.8958 34.8674 73.8379 34.595 73.7252C34.3226 73.6126 34.0751 73.4473 33.8666 73.2388C33.6582 73.0304 33.4929 72.7829 33.3802 72.5105C33.2675 72.2381 33.2097 71.9461 33.21 71.6514C33.21 71.0562 33.4464 70.4854 33.8673 70.0645C34.2881 69.6437 34.8589 69.4072 35.4541 69.4072V69.4072C36.0489 69.4078 36.6192 69.6445 37.0396 70.0653C37.46 70.4861 37.6961 71.0565 37.6961 71.6514V71.6514C37.6964 71.946 37.6386 72.2377 37.5261 72.51C37.4135 72.7823 37.2484 73.0297 37.0402 73.2381C36.832 73.4465 36.5847 73.6118 36.3126 73.7246C36.0404 73.8374 35.7487 73.8955 35.4541 73.8955V73.8955Z" fill="#9C9C9C"/>
<path d="M36.8104 70.9766H34.0752V72.6485H36.8104V70.9766Z" fill="white"/>
<path d="M36.1219 70.9768H34.7617L34.8962 70.6565H35.9873L36.1219 70.9768Z" fill="white"/>
<path d="M36.0761 71.8122C36.0761 71.9389 36.0385 72.0627 35.9681 72.1681C35.8977 72.2734 35.7977 72.3555 35.6806 72.404C35.5636 72.4525 35.4348 72.4652 35.3105 72.4405C35.1863 72.4158 35.0721 72.3547 34.9825 72.2652C34.893 72.1756 34.8319 72.0614 34.8072 71.9372C34.7825 71.8129 34.7952 71.6841 34.8437 71.5671C34.8922 71.45 34.9743 71.35 35.0796 71.2796C35.185 71.2092 35.3088 71.1716 35.4355 71.1716C35.6054 71.1716 35.7683 71.2391 35.8884 71.3593C36.0086 71.4794 36.0761 71.6423 36.0761 71.8122V71.8122Z" fill="#9C9C9C"/>
<path d="M35.9347 71.8114C35.9351 71.9092 35.9065 72.0048 35.8525 72.0863C35.7984 72.1677 35.7214 72.2312 35.6312 72.2688C35.541 72.3064 35.4417 72.3164 35.3458 72.2974C35.2499 72.2785 35.1618 72.2314 35.0927 72.1623C35.0236 72.0932 34.9766 72.0051 34.9576 71.9093C34.9387 71.8134 34.9486 71.714 34.9862 71.6238C35.0238 71.5336 35.0873 71.4566 35.1688 71.4026C35.2502 71.3485 35.3459 71.3199 35.4436 71.3203C35.5739 71.3203 35.6988 71.3721 35.7909 71.4642C35.883 71.5563 35.9347 71.6812 35.9347 71.8114Z" fill="white"/>
<path d="M36.6503 71.1172H36.3877V71.2688H36.6503V71.1172Z" fill="#9C9C9C"/>
<path d="M34.4265 70.8533H34.166V70.928H34.4265V70.8533Z" fill="white"/>
<path d="M7.51855 73.895C7.22377 73.8953 6.93182 73.8374 6.65942 73.7248C6.38703 73.6121 6.13952 73.4468 5.93108 73.2383C5.72264 73.0299 5.55735 72.7824 5.44467 72.51C5.33199 72.2376 5.27413 71.9457 5.27442 71.6509V71.6509C5.27442 71.0557 5.51085 70.4849 5.93171 70.064C6.35256 69.6432 6.92337 69.4067 7.51855 69.4067V69.4067C8.11356 69.4073 8.68403 69.6439 9.10477 70.0647C9.5255 70.4854 9.76212 71.0559 9.76268 71.6509V71.6509C9.76268 72.2461 9.52625 72.8169 9.10539 73.2377C8.68454 73.6586 8.11373 73.895 7.51855 73.895V73.895Z" fill="#9C9C9C"/>
<path d="M8.05472 71.3311H6.95508V73.1695H8.05472V71.3311Z" fill="white"/>
<path d="M8.35822 70.479V70.9039L8.0785 71.2349H6.93188L6.6543 70.9039V70.479H8.35822Z" fill="white"/>
<path d="M8.35822 70.1357H6.6543V70.3792H8.35822V70.1357Z" fill="white"/>
<path d="M21.5543 57.4306C23.8409 57.4306 25.6945 55.577 25.6945 53.2904C25.6945 51.0038 23.8409 49.1501 21.5543 49.1501C19.2677 49.1501 17.4141 51.0038 17.4141 53.2904C17.4141 55.577 19.2677 57.4306 21.5543 57.4306Z" fill="#C44E4E"/>
<path d="M23.3424 61.3434C23.5848 60.3574 22.982 59.3616 21.996 59.1192C21.01 58.8769 20.0142 59.4797 19.7718 60.4657C19.5295 61.4517 20.1323 62.4475 21.1183 62.6898C22.1043 62.9322 23.1001 62.3294 23.3424 61.3434Z" fill="#C44E4E"/>
<path d="M22.5118 65.8863C22.5118 66.0755 22.4557 66.2604 22.3506 66.4177C22.2455 66.575 22.0961 66.6976 21.9213 66.77C21.7465 66.8424 21.5542 66.8614 21.3686 66.8245C21.183 66.7876 21.0126 66.6965 20.8788 66.5627C20.745 66.4289 20.6539 66.2585 20.617 66.0729C20.5801 65.8873 20.599 65.695 20.6715 65.5202C20.7439 65.3454 20.8665 65.196 21.0238 65.0909C21.1811 64.9858 21.366 64.9297 21.5552 64.9297C21.8089 64.9297 22.0522 65.0305 22.2316 65.2099C22.411 65.3893 22.5118 65.6326 22.5118 65.8863Z" fill="#C44E4E"/>
<path d="M22.9835 51.8769V53.4164H22.5565V51.8769C22.5675 51.7399 22.55 51.6022 22.5052 51.4723C22.4603 51.3424 22.3891 51.2233 22.2959 51.1223C22.2027 51.0213 22.0896 50.9408 21.9638 50.8856C21.8379 50.8305 21.702 50.8021 21.5646 50.8021C21.4273 50.8021 21.2914 50.8305 21.1655 50.8856C21.0397 50.9408 20.9266 51.0213 20.8334 51.1223C20.7402 51.2233 20.669 51.3424 20.6241 51.4723C20.5793 51.6022 20.5618 51.7399 20.5728 51.8769V53.4164H20.1458V51.8769C20.1327 51.6814 20.1599 51.4853 20.2257 51.3007C20.2915 51.1162 20.3945 50.9471 20.5283 50.804C20.6621 50.6609 20.8239 50.5468 21.0037 50.4688C21.1834 50.3908 21.3773 50.3506 21.5732 50.3506C21.7691 50.3506 21.963 50.3908 22.1427 50.4688C22.3224 50.5468 22.4842 50.6609 22.6181 50.804C22.7519 50.9471 22.8549 51.1162 22.9207 51.3007C22.9865 51.4853 23.0137 51.6814 23.0006 51.8769H22.9835Z" fill="white"/>
<path d="M19.5723 52.4468V55.8333H23.5417V52.4468H19.5723ZM21.8911 54.9535H21.1844L21.3509 54.1656C21.3005 54.1336 21.2588 54.0895 21.2297 54.0373C21.2006 53.9851 21.185 53.9265 21.1844 53.8667C21.1913 53.7777 21.2315 53.6946 21.297 53.634C21.3625 53.5734 21.4485 53.5398 21.5378 53.5398C21.627 53.5398 21.713 53.5734 21.7785 53.634C21.844 53.6946 21.8842 53.7777 21.8911 53.8667C21.8905 53.9265 21.8749 53.9851 21.8458 54.0373C21.8167 54.0895 21.7751 54.1336 21.7246 54.1656L21.8911 54.9535Z" fill="white"/>
</svg>
