<svg width="58" height="80" viewBox="0 0 58 80" fill="none" xmlns="http://www.w3.org/2000/svg">
<path d="M39.5374 0.29541H4.53636C3.58898 0.30447 2.68398 0.68938 2.02031 1.36552C1.35664 2.04165 0.988643 2.95367 0.997217 3.90105V75.9602C0.989213 76.9074 1.3574 77.8191 2.02094 78.4951C2.68449 79.1711 3.58916 79.5562 4.53636 79.5658H39.5374C40.4852 79.5568 41.3907 79.172 42.055 78.496C42.7194 77.82 43.0883 76.908 43.0809 75.9602V3.90105C43.0889 2.9531 42.7201 2.04077 42.0556 1.36463C41.3912 0.688498 40.4854 0.303907 39.5374 0.29541ZM40.8652 73.7209C40.8652 75.617 39.4452 77.1528 37.6949 77.1528H6.38101C4.62645 77.1528 3.2065 75.6192 3.2065 73.7209V6.6337C3.2065 2.77281 4.62645 2.58191 6.38101 2.58191H12.655C13.0196 2.58191 13.3177 2.99589 13.3177 3.50853V3.72302C13.3177 4.92633 13.9762 4.93062 14.7827 4.93062H29.2889C30.104 4.93062 30.7582 4.93062 30.7582 3.72302V3.50853C30.7582 2.99589 31.0521 2.58191 31.4232 2.58191H37.6971C39.4474 2.58191 40.8673 3.09455 40.8673 6.6337L40.8652 73.7209Z" fill="#C44E4E"/>
<path d="M40.8678 6.69143V73.7786C40.8678 75.6769 39.4479 77.2105 37.6976 77.2105H6.38154C4.62698 77.2105 3.20703 75.6769 3.20703 73.7786V6.69143C3.20703 2.83055 4.62698 2.63965 6.38154 2.63965H12.6555C13.0201 2.63965 13.3183 3.05362 13.3183 3.56841V3.7829C13.3183 4.98621 13.9768 4.9905 14.7833 4.9905H29.2873C30.1024 4.9905 30.7566 4.9905 30.7566 3.7829V3.56841C30.7566 3.05362 31.0505 2.63965 31.4215 2.63965H37.6976C39.4479 2.63965 40.8678 3.15443 40.8678 6.69143Z" fill="white"/>
<path opacity="0.1" d="M40.8678 15.2593V73.7817C40.8678 75.6779 39.4479 77.2136 37.6976 77.2136H6.38154C4.62698 77.2136 3.20703 75.68 3.20703 73.7817V29.8706C11.45 28.8131 19.723 40.8505 27.3976 37.3028C34.418 34.0511 34.1027 23.7725 36.7088 19.0858C37.6422 17.392 39.1023 16.0486 40.8678 15.2593Z" fill="#009232"/>
<path opacity="0.2" d="M40.8678 53.7901V73.7809C40.8678 75.677 39.4479 77.2128 37.6976 77.2128H6.38154C4.62698 77.2128 3.20703 75.6792 3.20703 73.7809V47.647C7.67922 55.461 12.6812 57.711 17.2392 56.5549C22.4385 55.2379 29.8815 48.5028 36.8847 50.8429C38.4878 51.3848 39.8808 52.4155 40.8678 53.7901Z" fill="#009232"/>
<path d="M24.0174 3.43582H20.06C19.9951 3.43582 19.9329 3.41006 19.887 3.3642C19.8412 3.31835 19.8154 3.25615 19.8154 3.1913C19.8154 3.12645 19.8412 3.06425 19.887 3.0184C19.9329 2.97254 19.9951 2.94678 20.06 2.94678H24.0174C24.0822 2.94678 24.1444 2.97254 24.1903 3.0184C24.2361 3.06425 24.2619 3.12645 24.2619 3.1913C24.2619 3.25615 24.2361 3.31835 24.1903 3.3642C24.1444 3.41006 24.0822 3.43582 24.0174 3.43582Z" fill="white"/>
<path d="M11.5734 4.08822L11.5133 4.14828L11.479 4.1826C11.4024 4.10549 11.3114 4.04429 11.2111 4.00253C11.1107 3.96077 11.0032 3.93927 10.8945 3.93927C10.7858 3.93927 10.6783 3.96077 10.5779 4.00253C10.4776 4.04429 10.3866 4.10549 10.31 4.1826L10.2778 4.14828L10.2178 4.08822L10.295 4.01958C10.3488 3.97526 10.4079 3.93779 10.4709 3.90805C10.5452 3.87026 10.6247 3.84353 10.7068 3.82868C10.7454 3.82868 10.784 3.82868 10.8248 3.81152H10.9256H11.0071C11.0802 3.82105 11.1521 3.83831 11.2216 3.863C11.2718 3.8824 11.3205 3.90533 11.3675 3.93164C11.4174 3.95935 11.4641 3.99243 11.5069 4.03031L11.5712 4.08822H11.5734Z" fill="#9C9C9C"/>
<path d="M10.5037 4.37276L10.4072 4.27838C10.5118 4.17138 10.6493 4.10264 10.7976 4.08319C10.9035 4.06678 11.0118 4.07572 11.1136 4.10927C11.2154 4.14283 11.3078 4.20005 11.3832 4.27623L11.2866 4.37276C11.2354 4.32107 11.1744 4.28004 11.1072 4.25204C11.0401 4.22405 10.968 4.20963 10.8952 4.20963C10.8224 4.20963 10.7503 4.22405 10.6832 4.25204C10.616 4.28004 10.555 4.32107 10.5037 4.37276Z" fill="#9C9C9C"/>
<path d="M11.1897 4.47033L11.0953 4.56471C11.069 4.53831 11.0377 4.51737 11.0033 4.50308C10.9689 4.48879 10.932 4.48143 10.8947 4.48143C10.8575 4.48143 10.8206 4.48879 10.7862 4.50308C10.7517 4.51737 10.7205 4.53831 10.6942 4.56471L10.5977 4.47033C10.6364 4.43116 10.6825 4.40006 10.7333 4.37883C10.7841 4.35761 10.8386 4.34668 10.8937 4.34668C10.9487 4.34668 11.0032 4.35761 11.0541 4.37883C11.1049 4.40006 11.151 4.43116 11.1897 4.47033Z" fill="#9C9C9C"/>
<path d="M10.9802 4.65001C10.9802 4.66698 10.9752 4.68356 10.9657 4.69767C10.9563 4.71178 10.9429 4.72278 10.9272 4.72927C10.9115 4.73577 10.8943 4.73747 10.8777 4.73416C10.861 4.73084 10.8457 4.72267 10.8337 4.71068C10.8217 4.69868 10.8136 4.68339 10.8102 4.66674C10.8069 4.6501 10.8086 4.63285 10.8151 4.61717C10.8216 4.6015 10.8326 4.5881 10.8467 4.57867C10.8608 4.56924 10.8774 4.56421 10.8944 4.56421C10.9057 4.56421 10.9168 4.56643 10.9272 4.57074C10.9376 4.57505 10.9471 4.58137 10.9551 4.58934C10.963 4.59731 10.9693 4.60676 10.9737 4.61717C10.978 4.62758 10.9802 4.63874 10.9802 4.65001Z" fill="#9C9C9C"/>
<path d="M5.66602 4.27214C5.6656 4.22232 5.68001 4.17351 5.70742 4.13191C5.73484 4.09031 5.77401 4.05782 5.81995 4.03856C5.86589 4.0193 5.91653 4.01415 5.96541 4.02376C6.01429 4.03338 6.0592 4.05732 6.09443 4.09255C6.12965 4.12777 6.1536 4.17269 6.16321 4.22157C6.17283 4.27045 6.16768 4.32108 6.14842 4.36702C6.12916 4.41297 6.09666 4.45214 6.05506 4.47955C6.01347 4.50696 5.96465 4.52137 5.91484 4.52095C5.84885 4.52095 5.78556 4.49474 5.7389 4.44807C5.69224 4.40141 5.66602 4.33813 5.66602 4.27214Z" fill="#9C9C9C"/>
<path d="M6.44923 4.27215C6.4488 4.22242 6.46316 4.17369 6.49047 4.13214C6.51779 4.09059 6.55683 4.05809 6.60265 4.03877C6.64847 4.01944 6.69899 4.01417 6.74782 4.02361C6.79664 4.03305 6.84155 4.05678 6.87687 4.09179C6.91218 4.1268 6.93629 4.17151 6.94615 4.22025C6.95601 4.26899 6.95117 4.31955 6.93224 4.36554C6.91331 4.41152 6.88114 4.45084 6.83983 4.47851C6.79851 4.50618 6.74991 4.52096 6.70019 4.52096C6.634 4.52096 6.57049 4.49482 6.52348 4.44821C6.47648 4.40161 6.44979 4.33833 6.44923 4.27215Z" fill="#9C9C9C"/>
<path d="M7.23927 4.27214C7.23884 4.22232 7.25325 4.17351 7.28067 4.13191C7.30808 4.09031 7.34725 4.05782 7.39319 4.03856C7.43914 4.0193 7.48977 4.01415 7.53865 4.02376C7.58753 4.03338 7.63244 4.05732 7.66767 4.09255C7.70289 4.12777 7.72684 4.17269 7.73646 4.22157C7.74607 4.27045 7.74092 4.32108 7.72166 4.36702C7.7024 4.41297 7.6699 4.45214 7.62831 4.47955C7.58671 4.50696 7.5379 4.52137 7.48808 4.52095C7.42209 4.52095 7.3588 4.49474 7.31214 4.44807C7.26548 4.40141 7.23927 4.33813 7.23927 4.27214Z" fill="#9C9C9C"/>
<path d="M8.02149 4.27215C8.02107 4.22242 8.03543 4.17369 8.06274 4.13214C8.09006 4.09059 8.1291 4.05809 8.17492 4.03877C8.22074 4.01944 8.27126 4.01417 8.32008 4.02361C8.36891 4.03305 8.41382 4.05678 8.44913 4.09179C8.48444 4.1268 8.50856 4.17151 8.51842 4.22025C8.52828 4.26899 8.52343 4.31955 8.5045 4.36554C8.48557 4.41152 8.45341 4.45084 8.4121 4.47851C8.37078 4.50618 8.32218 4.52096 8.27245 4.52096C8.20627 4.52096 8.14276 4.49482 8.09575 4.44821C8.04875 4.40161 8.02206 4.33833 8.02149 4.27215Z" fill="#9C9C9C"/>
<path d="M8.8086 4.27214C8.80818 4.22232 8.82259 4.17351 8.85 4.13191C8.87741 4.09031 8.91658 4.05782 8.96253 4.03856C9.00847 4.0193 9.05911 4.01415 9.10799 4.02376C9.15687 4.03338 9.20178 4.05732 9.237 4.09255C9.27223 4.12777 9.29617 4.17269 9.30579 4.22157C9.3154 4.27045 9.31025 4.32108 9.29099 4.36702C9.27173 4.41297 9.23924 4.45214 9.19764 4.47955C9.15604 4.50696 9.10723 4.52137 9.05741 4.52095C8.99142 4.52095 8.92814 4.49474 8.88148 4.44807C8.83482 4.40141 8.8086 4.33813 8.8086 4.27214Z" fill="#9C9C9C"/>
<path d="M38.0432 4.8176H36.0098V3.87598H38.0432V4.8176ZM36.1127 4.7125H37.9359V3.97893H36.1127V4.7125Z" fill="#9C9C9C"/>
<path d="M37.4883 4.03394H36.1777V4.65597H37.4883V4.03394Z" fill="#9C9C9C"/>
<path d="M38.2231 4.09424H38.043V4.5983H38.2231V4.09424Z" fill="#9C9C9C"/>
<path d="M14.8133 20.9019V21.5004H11.5401V20.9019H12.9107V16.76C12.8375 16.8586 12.7474 16.9436 12.6447 17.011C12.3749 17.2039 12.0768 17.3537 11.761 17.455C11.6229 17.5027 11.4782 17.5287 11.332 17.5322V16.8887C11.5022 16.8836 11.6692 16.8412 11.8211 16.7643C11.9958 16.6813 12.1637 16.5845 12.323 16.4748C12.4629 16.3793 12.5968 16.2754 12.7241 16.1637C12.795 16.1098 12.8566 16.0446 12.9064 15.9707H13.5821V20.889L14.8133 20.9019Z" fill="#9C9C9C"/>
<path d="M20.4073 18.6697C20.4112 19.069 20.3489 19.4662 20.2228 19.8451C20.1109 20.1818 19.9394 20.4956 19.7166 20.7718C19.5071 21.0273 19.2453 21.2351 18.9487 21.3809C18.6469 21.5233 18.3173 21.5971 17.9835 21.5971C17.6498 21.5971 17.3202 21.5233 17.0183 21.3809C16.721 21.2353 16.4584 21.0276 16.2483 20.7718C16.0255 20.4956 15.854 20.1818 15.7421 19.8451C15.4961 19.0816 15.4961 18.26 15.7421 17.4964C15.8535 17.1596 16.025 16.8456 16.2483 16.5698C16.4583 16.3137 16.72 16.1047 17.0161 15.9564C17.3169 15.81 17.6469 15.7339 17.9814 15.7339C18.3158 15.7339 18.6459 15.81 18.9466 15.9564C19.2428 16.1047 19.5044 16.3137 19.7145 16.5698C19.9377 16.8456 20.1092 17.1596 20.2207 17.4964C20.3473 17.8745 20.4104 18.271 20.4073 18.6697ZM19.7402 18.6697C19.7445 18.3496 19.7003 18.0307 19.6094 17.7238C19.5338 17.4607 19.411 17.2136 19.2469 16.9945C19.0996 16.7976 18.9107 16.6357 18.6935 16.5205C18.4738 16.4081 18.2302 16.3507 17.9835 16.3532C17.7333 16.3497 17.4859 16.4071 17.2628 16.5205C17.0446 16.6351 16.8548 16.797 16.7073 16.9945C16.5448 17.2146 16.4221 17.4614 16.3448 17.7238C16.1703 18.3431 16.1703 18.9985 16.3448 19.6178C16.4221 19.8802 16.5448 20.127 16.7073 20.3471C16.8544 20.5432 17.0444 20.7032 17.2628 20.8147C17.4865 20.9263 17.7336 20.9829 17.9835 20.9798C18.2299 20.9819 18.4733 20.9253 18.6935 20.8147C18.9109 20.7025 19.1 20.5427 19.2469 20.3471C19.411 20.128 19.5338 19.8809 19.6094 19.6178C19.7005 19.3102 19.7446 18.9905 19.7402 18.6697Z" fill="#9C9C9C"/>
<path d="M21.5654 17.4423V16.4963H22.1274V17.4423H21.5654ZM21.5654 21.5005V20.5546H22.1274V21.5005H21.5654Z" fill="#9C9C9C"/>
<path d="M26.0684 19.2206C26.4691 19.2779 26.8331 19.4848 27.0873 19.7998C27.3479 20.1325 27.483 20.5463 27.4691 20.9688C27.4718 21.2428 27.4178 21.5145 27.3103 21.7667C27.2063 22.0036 27.051 22.2146 26.8556 22.3844C26.6484 22.5613 26.4087 22.6961 26.1499 22.7812C25.8557 22.8772 25.5478 22.9243 25.2383 22.9206C24.7916 22.931 24.3493 22.83 23.9514 22.6268C23.5989 22.4432 23.3091 22.1586 23.1191 21.8096L23.5739 21.3935C23.7076 21.6759 23.9227 21.9119 24.1916 22.0712C24.5103 22.249 24.8716 22.3358 25.2362 22.3222C25.6461 22.3458 26.0508 22.22 26.3752 21.9683C26.5163 21.8427 26.627 21.6867 26.6991 21.5121C26.7712 21.3375 26.8027 21.1487 26.7913 20.9602C26.8015 20.7639 26.7683 20.5678 26.6942 20.3858C26.62 20.2037 26.5067 20.0403 26.3623 19.907C26.0062 19.6275 25.5591 19.49 25.1075 19.5209H24.8651V18.9611H25.1268C25.5354 18.9879 25.94 18.866 26.2658 18.6179C26.3947 18.5081 26.4973 18.3707 26.566 18.2158C26.6347 18.061 26.6677 17.8928 26.6626 17.7235C26.6658 17.5467 26.6291 17.3715 26.5553 17.2108C26.4866 17.0666 26.3862 16.9397 26.2615 16.8397C26.1293 16.7364 25.9786 16.6592 25.8175 16.6124C25.6351 16.5629 25.4465 16.5405 25.2576 16.5459C24.9174 16.5387 24.5816 16.624 24.286 16.7926C24.0075 16.9487 23.7831 17.1859 23.6425 17.4725L23.2135 17.0671C23.2941 16.8954 23.4053 16.7399 23.5417 16.6081C23.6854 16.4689 23.8478 16.3505 24.0243 16.2563C24.2144 16.1562 24.4161 16.0799 24.6249 16.029C24.846 15.9747 25.0729 15.9473 25.3005 15.9475C25.5772 15.9441 25.8526 15.9861 26.1156 16.0719C26.3506 16.1479 26.569 16.268 26.7591 16.4258C26.9406 16.5735 27.0871 16.7595 27.1881 16.9706C27.2887 17.1921 27.3392 17.433 27.3361 17.6763C27.3371 17.8648 27.3081 18.0523 27.2503 18.2318C27.1954 18.4034 27.1104 18.564 26.9993 18.7058C26.8879 18.8452 26.752 18.9629 26.5982 19.0533C26.4344 19.1435 26.2543 19.2004 26.0684 19.2206Z" fill="#9C9C9C"/>
<path d="M31.3522 22.7277V21.0117H28.1348V20.4326L31.5667 15.9883H32.0107V20.4069H32.8686V21.0053H32.0107V22.7212L31.3522 22.7277ZM28.8297 20.4069H31.4187V17.0179L28.8297 20.4069Z" fill="#9C9C9C"/>
<path d="M13.7839 24.4604H13.0739V26.2814H12.8766V24.4604H12.1709V24.2866H13.7882L13.7839 24.4604Z" fill="#9C9C9C"/>
<path d="M14.2015 26.3096C14.1339 26.3148 14.0661 26.303 14.0043 26.2753C13.9425 26.2476 13.8886 26.2048 13.8476 26.1509C13.7588 26.0094 13.7175 25.8434 13.7296 25.6768V24.8188H13.9205V25.6468C13.9205 25.9771 14.0342 26.1444 14.2615 26.1444C14.3177 26.1437 14.3734 26.1343 14.4267 26.1165C14.4808 26.0976 14.5315 26.0701 14.5769 26.035C14.6236 25.9983 14.6654 25.9558 14.7013 25.9085C14.7389 25.8575 14.7686 25.8011 14.7892 25.7412V24.8188H14.9801V26.0372C14.9801 26.0886 15.0037 26.1165 15.0487 26.1165V26.2838H14.993H14.9608C14.9402 26.2833 14.9199 26.2787 14.9011 26.2702C14.8823 26.2618 14.8654 26.2496 14.8514 26.2345C14.8369 26.2182 14.8259 26.1992 14.8189 26.1786C14.8119 26.1579 14.8091 26.1361 14.8106 26.1144V25.9471C14.7494 26.0554 14.6606 26.1456 14.5532 26.2085C14.4459 26.2714 14.3238 26.3048 14.1993 26.3053L14.2015 26.3096Z" fill="#9C9C9C"/>
<path d="M16.0471 26.3097C15.9486 26.311 15.851 26.2917 15.7604 26.2529C15.6699 26.2141 15.5885 26.1567 15.5216 26.0845C15.4556 26.0135 15.4039 25.9305 15.3693 25.84C15.2949 25.6519 15.2949 25.4425 15.3693 25.2544C15.4041 25.1664 15.455 25.0857 15.5194 25.0163C15.5851 24.9471 15.6638 24.8917 15.7511 24.8533C15.844 24.8137 15.9439 24.7932 16.045 24.7932C16.146 24.7932 16.2459 24.8137 16.3388 24.8533C16.4253 24.8918 16.5028 24.9481 16.5662 25.0185C16.6306 25.0878 16.6815 25.1685 16.7163 25.2565C16.7518 25.3482 16.77 25.4457 16.7699 25.544V25.5869C16.7716 25.5975 16.7716 25.6084 16.7699 25.619H15.5173C15.5224 25.6934 15.5413 25.7661 15.5731 25.8335C15.6015 25.8982 15.6415 25.957 15.691 26.0073C15.7393 26.0552 15.796 26.0937 15.8583 26.121C15.9219 26.1486 15.9906 26.1625 16.06 26.1617C16.1071 26.1618 16.154 26.1553 16.1994 26.1424C16.2452 26.1303 16.2892 26.1123 16.3302 26.0888C16.3698 26.0671 16.4054 26.0389 16.4353 26.0051C16.4668 25.9748 16.4916 25.9383 16.5083 25.8979L16.6756 25.9429C16.6516 25.9971 16.619 26.0471 16.579 26.0909C16.4903 26.1815 16.3794 26.2473 16.2573 26.2818C16.1887 26.3002 16.1181 26.3095 16.0471 26.3097ZM16.5855 25.4732C16.5817 25.3989 16.5634 25.326 16.5319 25.2587C16.5037 25.1958 16.4636 25.139 16.4139 25.0914C16.3661 25.0444 16.3101 25.0066 16.2487 24.9799C16.1846 24.9541 16.1162 24.941 16.0471 24.9412C15.9787 24.9404 15.9108 24.9532 15.8475 24.979C15.7841 25.0048 15.7265 25.043 15.6782 25.0914C15.6282 25.1384 15.5887 25.1954 15.5623 25.2587C15.5319 25.3264 15.5145 25.3991 15.5109 25.4732H16.5855Z" fill="#9C9C9C"/>
<path d="M17.5502 26.3098C17.4364 26.3094 17.3233 26.2906 17.2156 26.254C17.1117 26.2196 17.016 26.1641 16.9346 26.091L17.0225 25.9623C17.098 26.0255 17.1826 26.0768 17.2735 26.1146C17.3612 26.1476 17.4543 26.1643 17.548 26.1639C17.6466 26.1689 17.7445 26.1442 17.829 26.0931C17.8627 26.0712 17.8901 26.0409 17.9085 26.0052C17.927 25.9694 17.9358 25.9295 17.9341 25.8894C17.936 25.853 17.9262 25.8169 17.9062 25.7864C17.8854 25.7558 17.8574 25.7308 17.8247 25.7135C17.7804 25.6905 17.7336 25.6726 17.6853 25.6599C17.6317 25.6427 17.5673 25.6277 17.4944 25.6105C17.4215 25.5934 17.3357 25.5698 17.2799 25.5483C17.226 25.5321 17.1748 25.5083 17.1276 25.4775C17.0892 25.4543 17.058 25.4209 17.0375 25.381C17.0164 25.3361 17.0061 25.2869 17.0075 25.2373C17.0064 25.1696 17.0219 25.1026 17.0525 25.0421C17.0809 24.9874 17.1212 24.9397 17.1705 24.9027C17.2231 24.8654 17.282 24.8378 17.3443 24.8212C17.4141 24.8017 17.4863 24.7923 17.5587 24.7933C17.6635 24.7917 17.7675 24.8099 17.8655 24.8469C17.9466 24.8797 18.0197 24.9294 18.08 24.9928L17.9877 25.1043C17.9326 25.0475 17.8651 25.0042 17.7904 24.9778C17.712 24.9495 17.6292 24.935 17.5459 24.9349C17.4989 24.9349 17.4521 24.9407 17.4065 24.952C17.3657 24.961 17.3271 24.9777 17.2928 25.0014C17.2591 25.0217 17.2323 25.0516 17.2156 25.0872C17.1958 25.1248 17.1862 25.1669 17.1877 25.2094C17.1863 25.242 17.1929 25.2744 17.207 25.3038C17.2221 25.3308 17.2443 25.3531 17.2713 25.3682C17.3076 25.3875 17.3457 25.4033 17.385 25.4153L17.5523 25.4582C17.6467 25.4818 17.7282 25.5033 17.799 25.5269C17.8615 25.5446 17.9214 25.5705 17.977 25.6041C18.022 25.6308 18.0597 25.6685 18.0864 25.7135C18.1114 25.7626 18.124 25.8171 18.1229 25.8722C18.1259 25.9355 18.113 25.9986 18.0852 26.0555C18.0575 26.1125 18.0158 26.1616 17.9641 26.1982C17.8422 26.2801 17.6967 26.3193 17.5502 26.3098Z" fill="#9C9C9C"/>
<path d="M19.0356 26.3094C18.9384 26.3101 18.8424 26.2889 18.7546 26.2472C18.6732 26.2055 18.6004 26.1487 18.5401 26.0799C18.4781 26.0092 18.4294 25.9278 18.3964 25.8397C18.3615 25.7486 18.3434 25.6519 18.3428 25.5544C18.3422 25.4541 18.3597 25.3546 18.3943 25.2605C18.4256 25.1719 18.4728 25.0898 18.5337 25.0181C18.5924 24.9482 18.6656 24.8919 18.7482 24.853C18.8316 24.8122 18.9235 24.7916 19.0163 24.7929C19.1336 24.7909 19.2488 24.8246 19.3466 24.8895C19.4341 24.9511 19.5072 25.0308 19.5611 25.1233V24.231H19.752V26.0349C19.752 26.0863 19.7756 26.1142 19.8206 26.1142V26.2815C19.7978 26.284 19.7748 26.284 19.752 26.2815C19.7089 26.2813 19.6672 26.2661 19.634 26.2386C19.6187 26.2257 19.6064 26.2096 19.5979 26.1914C19.5894 26.1733 19.5849 26.1536 19.5847 26.1335V25.9898C19.527 26.0847 19.4457 26.163 19.3488 26.2172C19.2543 26.2749 19.1463 26.3067 19.0356 26.3094ZM19.0764 26.1421C19.1276 26.1408 19.1782 26.1314 19.2265 26.1142C19.2808 26.0951 19.332 26.0684 19.3788 26.0349C19.4237 26.0032 19.4634 25.9648 19.4968 25.9212C19.5282 25.8797 19.5488 25.831 19.5568 25.7796V25.327C19.5386 25.2746 19.5109 25.2259 19.4753 25.1833C19.4399 25.1394 19.3988 25.1004 19.353 25.0675C19.3086 25.034 19.2594 25.0073 19.2072 24.9881C19.1575 24.9709 19.1054 24.9615 19.0528 24.9602C18.9781 24.9592 18.9043 24.9769 18.8383 25.0117C18.7751 25.0449 18.719 25.0901 18.6731 25.1447C18.6275 25.2019 18.5919 25.2665 18.568 25.3356C18.5446 25.4047 18.5322 25.4771 18.5315 25.5501C18.5319 25.6272 18.5464 25.7035 18.5744 25.7753C18.6011 25.8442 18.6404 25.9075 18.6903 25.9619C18.7383 26.0153 18.7967 26.0583 18.8619 26.0885C18.9277 26.1221 19.0003 26.1404 19.0742 26.1421H19.0764Z" fill="#9C9C9C"/>
<path d="M20.5494 26.3097C20.421 26.3126 20.2965 26.2657 20.2019 26.1789C20.1591 26.1368 20.1243 26.0874 20.099 26.033C20.0748 25.9768 20.0624 25.9162 20.0625 25.855C20.0622 25.7928 20.0777 25.7315 20.1076 25.677C20.1389 25.6217 20.1821 25.5741 20.2341 25.5375C20.2936 25.4963 20.3596 25.4651 20.4293 25.4453C20.5096 25.4231 20.5926 25.4123 20.676 25.4131C20.7521 25.4133 20.8282 25.4197 20.9033 25.4324C20.9767 25.4439 21.0486 25.4633 21.1178 25.4904V25.3574C21.1231 25.2447 21.0838 25.1345 21.0084 25.0506C20.9686 25.0111 20.9209 24.9804 20.8684 24.9604C20.816 24.9405 20.7599 24.9317 20.7038 24.9348C20.6253 24.9365 20.5477 24.9518 20.4743 24.9799C20.3894 25.0138 20.3087 25.0578 20.2341 25.1107L20.1676 24.9842C20.3277 24.8659 20.52 24.7993 20.7189 24.7933C20.797 24.7892 20.8752 24.8008 20.9489 24.8273C21.0225 24.8539 21.0902 24.8948 21.1478 24.9477C21.2025 25.0044 21.2448 25.0718 21.2721 25.1456C21.2994 25.2194 21.3111 25.2981 21.3066 25.3767V26.0373C21.3066 26.0888 21.3302 26.1167 21.3774 26.1167V26.284C21.3524 26.2864 21.3272 26.2864 21.3023 26.284C21.2612 26.2858 21.2209 26.2729 21.1886 26.2475C21.1751 26.2344 21.1644 26.2187 21.157 26.2014C21.1496 26.1841 21.1458 26.1655 21.1457 26.1467V26.0309C21.0799 26.1186 20.9928 26.188 20.8926 26.2325C20.7856 26.284 20.6682 26.3104 20.5494 26.3097ZM20.5944 26.1639C20.6888 26.1645 20.7823 26.1455 20.869 26.1081C20.9441 26.0756 21.0092 26.0238 21.0578 25.958C21.0743 25.9431 21.0875 25.9248 21.0964 25.9043C21.1045 25.8868 21.1088 25.8678 21.1092 25.8486V25.6105C21.0444 25.5864 20.9777 25.5677 20.9098 25.5547C20.839 25.5414 20.7672 25.5349 20.6953 25.5354C20.5793 25.5304 20.4645 25.5595 20.3649 25.6191C20.3274 25.6412 20.2961 25.6725 20.274 25.71C20.2519 25.7475 20.2396 25.79 20.2384 25.8336C20.2387 25.8772 20.2482 25.9203 20.2663 25.9601C20.283 25.9992 20.3078 26.0343 20.3392 26.0631C20.3714 26.0932 20.4093 26.1166 20.4507 26.1317C20.4959 26.1521 20.5448 26.1631 20.5944 26.1639Z" fill="#9C9C9C"/>
<path d="M21.7605 26.7317H21.8034H21.8442C21.8712 26.7329 21.8982 26.7286 21.9235 26.7189C21.9479 26.7035 21.9679 26.6821 21.9814 26.6567C22.0065 26.6127 22.028 26.5668 22.0458 26.5194C22.0694 26.4593 22.1016 26.3778 22.1445 26.277L21.501 24.812H21.6962L22.2388 26.099L22.7429 24.812H22.9252L22.1659 26.7017C22.1451 26.7574 22.1095 26.8063 22.0629 26.8433C22.0074 26.8865 21.938 26.9079 21.8678 26.9033H21.8249H21.7648L21.7605 26.7317Z" fill="#9C9C9C"/>
<path d="M23.0933 26.5085L23.1405 26.2726H23.0762V26.0066H23.2628V26.2726L23.192 26.5085H23.0933Z" fill="#9C9C9C"/>
<path d="M25.774 25.6245C25.7727 25.7156 25.7531 25.8055 25.7162 25.8888C25.6794 25.9721 25.626 26.0471 25.5595 26.1093C25.4946 26.1721 25.4181 26.2217 25.3342 26.2551C25.2466 26.2916 25.1525 26.3098 25.0575 26.3087C24.958 26.3099 24.8594 26.2901 24.768 26.2508C24.6812 26.2138 24.6035 26.1582 24.5406 26.0878C24.4746 26.0103 24.4243 25.9207 24.3926 25.824C24.3561 25.7111 24.338 25.593 24.339 25.4744C24.3372 25.2963 24.3551 25.1186 24.3926 24.9446C24.4213 24.8119 24.4721 24.685 24.5428 24.5692C24.6021 24.4805 24.6814 24.407 24.7744 24.3547C24.8677 24.306 24.9716 24.281 25.0769 24.2818C25.2025 24.2805 25.3259 24.3147 25.4329 24.3804C25.5373 24.4458 25.6202 24.5406 25.671 24.6528L25.5487 24.7665C25.511 24.673 25.446 24.593 25.3621 24.537C25.2783 24.4793 25.1786 24.4493 25.0769 24.4512C24.9979 24.45 24.9201 24.47 24.8516 24.5091C24.7811 24.552 24.7217 24.6108 24.6779 24.6807C24.6266 24.7651 24.589 24.857 24.5664 24.9531C24.5376 25.074 24.5239 25.1979 24.5256 25.3221C24.5663 25.213 24.6417 25.1203 24.7401 25.0582C24.8413 24.992 24.9601 24.9576 25.0811 24.9596C25.2629 24.9576 25.438 25.0278 25.568 25.1548C25.6295 25.2166 25.679 25.2893 25.7139 25.3693C25.75 25.4497 25.7704 25.5364 25.774 25.6245ZM25.0704 26.1414C25.1396 26.1412 25.2081 26.1273 25.272 26.1007C25.3335 26.0739 25.3894 26.0361 25.4372 25.9891C25.4848 25.9415 25.5234 25.8855 25.5509 25.824C25.5776 25.7608 25.5914 25.693 25.5916 25.6245C25.592 25.555 25.5773 25.4862 25.5487 25.4229C25.5212 25.3614 25.4827 25.3054 25.4351 25.2577C25.3873 25.2107 25.3313 25.1729 25.2699 25.1462C25.2059 25.1197 25.1375 25.1059 25.0683 25.1054C24.999 25.1057 24.9305 25.1196 24.8666 25.1462C24.8052 25.1729 24.7492 25.2107 24.7015 25.2577C24.6539 25.3054 24.6153 25.3614 24.5878 25.4229C24.561 25.4867 24.5471 25.5553 24.5471 25.6245C24.547 25.6933 24.5616 25.7613 24.59 25.824C24.6181 25.8845 24.6565 25.9397 24.7036 25.987C24.7517 26.0352 24.8085 26.0737 24.8709 26.1007C24.9341 26.1274 25.0019 26.1412 25.0704 26.1414Z" fill="#9C9C9C"/>
<path d="M28.6307 26.2809V24.6422L27.9036 25.9099H27.7877L27.0606 24.6422V26.2809H26.8633V24.2861H27.0649L27.8435 25.6525L28.6286 24.2861H28.828V26.2809H28.6307Z" fill="#9C9C9C"/>
<path d="M29.6441 26.3097C29.5158 26.3126 29.3913 26.2657 29.2967 26.1789C29.2539 26.1368 29.219 26.0874 29.1937 26.033C29.1695 25.9768 29.1571 25.9162 29.1572 25.855C29.1569 25.7928 29.1724 25.7315 29.2023 25.677C29.2336 25.6217 29.2768 25.5741 29.3288 25.5375C29.3884 25.4963 29.4543 25.4651 29.524 25.4453C29.6043 25.4231 29.6874 25.4123 29.7707 25.4131C29.8469 25.4133 29.9229 25.4197 29.998 25.4324C30.0714 25.4439 30.1434 25.4633 30.2125 25.4904V25.3574C30.2178 25.2447 30.1785 25.1345 30.1031 25.0506C30.0633 25.0111 30.0156 24.9804 29.9632 24.9604C29.9107 24.9405 29.8546 24.9317 29.7986 24.9348C29.72 24.9365 29.6424 24.9518 29.5691 24.9799C29.4841 25.0138 29.4035 25.0578 29.3288 25.1107L29.2623 24.9842C29.4224 24.8659 29.6147 24.7993 29.8136 24.7933C29.8918 24.7892 29.97 24.8008 30.0436 24.8273C30.1173 24.8539 30.1849 24.8948 30.2426 24.9477C30.2972 25.0044 30.3395 25.0718 30.3668 25.1456C30.3941 25.2194 30.4059 25.2981 30.4013 25.3767V26.0373C30.4013 26.0888 30.4249 26.1167 30.4721 26.1167V26.284C30.4471 26.2864 30.422 26.2864 30.397 26.284C30.356 26.2858 30.3156 26.2729 30.2833 26.2475C30.2698 26.2344 30.2591 26.2187 30.2517 26.2014C30.2444 26.1841 30.2405 26.1655 30.2404 26.1467V26.0309C30.1746 26.1186 30.0875 26.188 29.9873 26.2325C29.8803 26.284 29.7629 26.3104 29.6441 26.3097ZM29.6892 26.1639C29.7836 26.1645 29.8771 26.1455 29.9637 26.1081C30.0392 26.0762 30.1045 26.0243 30.1525 25.958C30.1691 25.9431 30.1822 25.9248 30.1911 25.9043C30.1992 25.8868 30.2036 25.8678 30.204 25.8486V25.6105C30.1391 25.5864 30.0724 25.5677 30.0045 25.5547C29.9338 25.5414 29.8619 25.5349 29.79 25.5354C29.6741 25.5304 29.5592 25.5595 29.4597 25.6191C29.4221 25.6412 29.3909 25.6725 29.3687 25.71C29.3466 25.7475 29.3343 25.79 29.3331 25.8336C29.3334 25.8772 29.3429 25.9203 29.361 25.9601C29.3777 25.9992 29.4026 26.0343 29.4339 26.0631C29.4661 26.0932 29.504 26.1166 29.5455 26.1317C29.5907 26.1521 29.6396 26.1631 29.6892 26.1639Z" fill="#9C9C9C"/>
<path d="M30.8552 26.7317H30.8981H30.9389C30.9659 26.7329 30.993 26.7286 31.0182 26.7189C31.0431 26.7041 31.0633 26.6825 31.0762 26.6567C31.1012 26.6127 31.1228 26.5668 31.1405 26.5194C31.1641 26.4593 31.1963 26.3778 31.2392 26.277L30.5957 24.812H30.7909L31.3336 26.099L31.8376 24.812H32.0199L31.2628 26.706C31.242 26.7617 31.2064 26.8106 31.1598 26.8476C31.1043 26.8908 31.0348 26.9122 30.9646 26.9076H30.911H30.8509L30.8552 26.7317Z" fill="#9C9C9C"/>
<path d="M35.9819 73.7274C35.6857 73.7277 35.3925 73.6696 35.1188 73.5564C34.8452 73.4432 34.5966 73.2771 34.3872 73.0678C34.1778 72.8584 34.0118 72.6097 33.8986 72.3361C33.7854 72.0625 33.7273 71.7692 33.7275 71.4731C33.7275 70.8752 33.965 70.3018 34.3878 69.879C34.8106 69.4563 35.384 69.2188 35.9819 69.2188C36.5794 69.2193 37.1522 69.4571 37.5745 69.8798C37.9968 70.3025 38.2341 70.8756 38.2341 71.4731C38.2343 71.769 38.1763 72.0621 38.0632 72.3356C37.9502 72.6091 37.7843 72.8576 37.5752 73.067C37.366 73.2764 37.1176 73.4424 36.8442 73.5558C36.5709 73.6691 36.2778 73.7274 35.9819 73.7274Z" fill="#9C9C9C"/>
<path d="M37.3434 70.7954H34.5957V72.4749H37.3434V70.7954Z" fill="white"/>
<path d="M36.6525 70.7951H35.2861L35.4213 70.4734H36.5173L36.6525 70.7951Z" fill="white"/>
<path d="M36.6083 71.6344C36.6083 71.7617 36.5705 71.8861 36.4998 71.9919C36.4291 72.0978 36.3286 72.1802 36.211 72.2289C36.0934 72.2777 35.9641 72.2904 35.8392 72.2656C35.7144 72.2407 35.5998 72.1795 35.5098 72.0895C35.4198 71.9995 35.3585 71.8848 35.3337 71.76C35.3088 71.6352 35.3216 71.5058 35.3703 71.3882C35.419 71.2706 35.5015 71.1701 35.6073 71.0994C35.7131 71.0287 35.8375 70.991 35.9648 70.991C36.1354 70.991 36.2991 71.0588 36.4198 71.1794C36.5405 71.3001 36.6083 71.4638 36.6083 71.6344Z" fill="#9C9C9C"/>
<path d="M36.4636 71.634C36.464 71.7321 36.4353 71.8282 36.381 71.91C36.3267 71.9919 36.2494 72.0557 36.1587 72.0935C36.0681 72.1312 35.9683 72.1412 35.872 72.1222C35.7757 72.1031 35.6872 72.0559 35.6178 71.9865C35.5484 71.917 35.5011 71.8286 35.4821 71.7322C35.463 71.6359 35.473 71.5361 35.5108 71.4455C35.5486 71.3549 35.6124 71.2775 35.6942 71.2232C35.776 71.169 35.8721 71.1402 35.9703 71.1406C36.1011 71.1406 36.2266 71.1926 36.3191 71.2851C36.4116 71.3776 36.4636 71.5031 36.4636 71.634Z" fill="white"/>
<path d="M37.1818 70.9365H36.918V71.0888H37.1818V70.9365Z" fill="#9C9C9C"/>
<path d="M34.9502 70.6716H34.6885V70.7467H34.9502V70.6716Z" fill="white"/>
<path d="M7.92034 73.7274C7.62422 73.7277 7.33095 73.6696 7.05732 73.5564C6.78368 73.4432 6.53505 73.2771 6.32566 73.0678C6.11627 72.8584 5.95023 72.6097 5.83704 72.3361C5.72385 72.0625 5.66573 71.7692 5.66602 71.4731C5.66602 70.8752 5.90353 70.3018 6.32629 69.879C6.74906 69.4563 7.32246 69.2188 7.92034 69.2188C8.51806 69.2193 9.09112 69.457 9.51377 69.8797C9.93641 70.3023 10.1741 70.8754 10.1747 71.4731C10.1747 72.071 9.93717 72.6444 9.5144 73.0671C9.09163 73.4899 8.51823 73.7274 7.92034 73.7274Z" fill="#9C9C9C"/>
<path d="M8.45816 71.1511H7.35352V72.9979H8.45816V71.1511Z" fill="white"/>
<path d="M8.76244 70.2959V70.7227L8.48145 71.0552H7.32962L7.05078 70.7227V70.2959H8.76244Z" fill="white"/>
<path d="M8.76244 69.9502H7.05078V70.1947H8.76244V69.9502Z" fill="white"/>
<path d="M22.0204 57.1877C24.3173 57.1877 26.1794 55.3256 26.1794 53.0287C26.1794 50.7317 24.3173 48.8696 22.0204 48.8696C19.7234 48.8696 17.8613 50.7317 17.8613 53.0287C17.8613 55.3256 19.7234 57.1877 22.0204 57.1877Z" fill="#009232"/>
<path d="M23.8157 61.118C24.0592 60.1276 23.4536 59.1273 22.4632 58.8838C21.4727 58.6403 20.4724 59.2459 20.2289 60.2364C19.9855 61.2269 20.591 62.2272 21.5815 62.4706C22.572 62.7141 23.5723 62.1085 23.8157 61.118Z" fill="#009232"/>
<path d="M22.9805 65.6821C22.9805 65.8722 22.9241 66.058 22.8185 66.216C22.7129 66.374 22.5628 66.4972 22.3873 66.5699C22.2117 66.6426 22.0185 66.6617 21.8321 66.6246C21.6457 66.5875 21.4744 66.496 21.34 66.3616C21.2057 66.2272 21.1141 66.056 21.0771 65.8696C21.04 65.6832 21.059 65.49 21.1317 65.3144C21.2045 65.1388 21.3276 64.9887 21.4857 64.8831C21.6437 64.7775 21.8295 64.7212 22.0195 64.7212C22.2744 64.7212 22.5188 64.8224 22.699 65.0026C22.8792 65.1829 22.9805 65.4273 22.9805 65.6821Z" fill="#009232"/>
<path d="M23.4554 51.6094V53.1559H23.0264V51.6094C23.0375 51.4718 23.0199 51.3334 22.9749 51.203C22.9298 51.0725 22.8583 50.9528 22.7647 50.8514C22.6711 50.75 22.5575 50.669 22.431 50.6137C22.3046 50.5583 22.1681 50.5297 22.0301 50.5297C21.8921 50.5297 21.7556 50.5583 21.6291 50.6137C21.5027 50.669 21.3891 50.75 21.2955 50.8514C21.2019 50.9528 21.1303 51.0725 21.0853 51.203C21.0402 51.3334 21.0227 51.4718 21.0338 51.6094V53.1559H20.6048V51.6094C20.5916 51.413 20.6189 51.216 20.685 51.0306C20.7511 50.8452 20.8546 50.6754 20.9891 50.5317C21.1235 50.3879 21.286 50.2733 21.4666 50.195C21.6471 50.1166 21.8419 50.0762 22.0387 50.0762C22.2355 50.0762 22.4302 50.1166 22.6108 50.195C22.7913 50.2733 22.9539 50.3879 23.0883 50.5317C23.2227 50.6754 23.3262 50.8452 23.3923 51.0306C23.4584 51.216 23.4857 51.413 23.4726 51.6094H23.4554Z" fill="white"/>
<path d="M20.0273 52.1819V55.5838H24.0148V52.1819H20.0273ZM22.3567 54.7H21.6468L21.8141 53.9086C21.7634 53.8764 21.7215 53.8321 21.6923 53.7796C21.6631 53.7272 21.6474 53.6683 21.6468 53.6083C21.6537 53.5189 21.6941 53.4354 21.7599 53.3745C21.8258 53.3136 21.9121 53.2798 22.0018 53.2798C22.0914 53.2798 22.1778 53.3136 22.2436 53.3745C22.3094 53.4354 22.3498 53.5189 22.3567 53.6083C22.3561 53.6683 22.3404 53.7272 22.3112 53.7796C22.282 53.8321 22.2401 53.8764 22.1894 53.9086L22.3567 54.7Z" fill="white"/>
<path d="M56.0271 32.8579C52.8027 29.4397 47.7212 27.2598 42.4435 27.0373C37.1658 26.8149 31.7961 28.5743 28.309 31.7696C28.1058 31.9522 27.9619 32.1915 27.8959 32.4566C27.8299 32.7217 27.8448 33.0005 27.9387 33.2571C28.0326 33.5136 28.2012 33.7362 28.4227 33.8961C28.6442 34.0559 28.9086 34.1458 29.1816 34.1541C29.3601 34.1625 29.5385 34.1352 29.7063 34.0737C29.8741 34.0122 30.0279 33.9178 30.1587 33.7961C33.1441 31.0817 37.6957 29.5771 42.3341 29.778C46.9724 29.9789 51.2957 31.8267 54.0459 34.74C54.295 35.004 54.6388 35.1583 55.0017 35.1689C55.3646 35.1795 55.7168 35.0454 55.9809 34.7963C56.2449 34.5472 56.3992 34.2034 56.4098 33.8405C56.4204 33.4777 56.2863 33.1254 56.0372 32.8614L56.0271 32.8579Z" fill="#C44E4E"/>
<path d="M52.1198 36.6571C49.3506 34.2369 45.837 32.8364 42.1623 32.688C38.4875 32.5396 34.8725 33.6523 31.9172 35.8414C31.6948 36.0131 31.5307 36.2491 31.4471 36.5173C31.3635 36.7855 31.3646 37.073 31.4501 37.3406C31.5357 37.6082 31.7015 37.843 31.9252 38.013C32.1489 38.183 32.4195 38.28 32.7002 38.2908C33.0174 38.3136 33.3323 38.2216 33.5873 38.0315C36.0335 36.2394 39.0153 35.3304 42.0451 35.4531C45.075 35.5757 47.9736 36.7228 50.2669 38.7067C50.3998 38.8278 50.5553 38.9215 50.7244 38.9825C50.8936 39.0435 51.0731 39.0706 51.2527 39.0623C51.4323 39.0539 51.6085 39.0103 51.7713 38.9338C51.934 38.8573 52.0801 38.7496 52.2012 38.6166C52.3223 38.4837 52.416 38.3282 52.4771 38.1591C52.5381 37.9899 52.5652 37.8104 52.5568 37.6308C52.5484 37.4512 52.5048 37.275 52.4283 37.1122C52.3519 36.9495 52.2441 36.8034 52.1112 36.6823L52.1198 36.6571Z" fill="#C44E4E"/>
<path d="M48.1897 40.4104C46.4387 38.8547 44.1962 37.9646 41.855 37.8959C39.5137 37.8272 37.2229 38.5844 35.3837 40.0347C35.0958 40.2558 34.9072 40.582 34.8592 40.9418C34.8111 41.3016 34.9075 41.6658 35.1272 41.9547C35.3477 42.2403 35.6707 42.4288 36.0277 42.4805C36.3848 42.5321 36.748 42.4428 37.0403 42.2314C38.3767 41.1603 40.0495 40.5974 41.7616 40.6427C43.4737 40.688 45.1143 41.3386 46.3922 42.4789C46.6667 42.7166 47.0244 42.8355 47.3866 42.8094C47.7488 42.7834 48.0858 42.6145 48.3235 42.34C48.5612 42.0655 48.6801 41.7077 48.6541 41.3456C48.628 40.9834 48.4592 40.6463 48.1847 40.4086L48.1897 40.4104Z" fill="#C44E4E"/>
<path d="M41.7758 42.7241C41.1262 42.6937 40.4822 42.8567 39.9252 43.1923C39.3682 43.5279 38.9232 44.021 38.6464 44.6095C38.3697 45.1979 38.2735 45.8552 38.3702 46.4983C38.4669 47.1413 38.752 47.7413 39.1896 48.2224C39.6272 48.7034 40.1976 49.0439 40.8286 49.2009C41.4597 49.3579 42.1231 49.3242 42.735 49.1043C43.347 48.8843 43.88 48.4878 44.2667 47.965C44.6534 47.4422 44.8764 46.8164 44.9076 46.1669C44.9283 45.7351 44.8637 45.3035 44.7174 44.8968C44.5712 44.49 44.3462 44.116 44.0554 43.7963C43.7645 43.4765 43.4135 43.2172 43.0223 43.0333C42.6312 42.8493 42.2076 42.7442 41.7758 42.7241Z" fill="#C44E4E"/>
</svg>
